<svg xmlns="http://www.w3.org/2000/svg" id="Layer_1" data-name="Layer 1" viewBox="0 0 1920 1080"><defs><style>.cls-1{font-size:17px;fill:#3b3b3b;font-family:AcuminProCond-Bold,Acumin Pro Condensed;font-weight:700}.cls-2{letter-spacing:-.05em}.cls-3{letter-spacing:0}.cls-4{letter-spacing:-.01em}.cls-5{letter-spacing:0}.cls-6{letter-spacing:-.03em}.cls-7{letter-spacing:.01em}.cls-8{letter-spacing:-.01em}.cls-9{font-size:13px}.cls-10,.cls-101,.cls-102,.cls-103,.cls-108,.cls-109,.cls-11,.cls-110,.cls-12,.cls-15,.cls-16,.cls-17,.cls-18,.cls-19,.cls-20,.cls-23,.cls-24,.cls-25,.cls-26,.cls-27,.cls-28,.cls-29,.cls-35,.cls-36,.cls-37,.cls-40,.cls-41,.cls-42,.cls-43,.cls-46,.cls-49,.cls-50,.cls-51,.cls-52,.cls-56,.cls-57,.cls-59,.cls-84,.cls-85,.cls-86,.cls-88,.cls-91,.cls-93,.cls-94{font-family:AcuminProCond-Regular,Acumin Pro Condensed;font-weight:400}.cls-10{letter-spacing:-.01em}.cls-12{letter-spacing:.02em}.cls-13{letter-spacing:.04em}.cls-14,.cls-18{letter-spacing:0}.cls-15{letter-spacing:-.01em}.cls-16,.cls-17{letter-spacing:.01em}.cls-19,.cls-20,.cls-38{letter-spacing:0}.cls-116,.cls-21{fill:#bb464b}.cls-124,.cls-22,.cls-74{fill:none;stroke-miterlimit:10}.cls-22{stroke:#000}.cls-23{letter-spacing:.02em}.cls-24{letter-spacing:-.02em}.cls-25{letter-spacing:0}.cls-26{letter-spacing:.01em}.cls-27{letter-spacing:.02em}.cls-28,.cls-29{letter-spacing:.01em}.cls-30{fill:#e0684b}.cls-31{letter-spacing:-.04em}.cls-32,.cls-33{letter-spacing:0}.cls-34{letter-spacing:-.01em}.cls-35{letter-spacing:.01em}.cls-36{letter-spacing:-.01em}.cls-37{letter-spacing:.01em}.cls-39{fill:#d5d2ca}.cls-40{letter-spacing:.01em}.cls-41{letter-spacing:0}.cls-42{letter-spacing:-.01em}.cls-43{letter-spacing:0}.cls-44{fill:#e0ded8}.cls-45{letter-spacing:0}.cls-46{letter-spacing:.01em}.cls-47{fill:#fff}.cls-48{letter-spacing:-.01em}.cls-49,.cls-50,.cls-51{letter-spacing:.02em}.cls-52{letter-spacing:.01em}.cls-53{fill:#252c26}.cls-54,.cls-55{letter-spacing:0}.cls-56{letter-spacing:.01em}.cls-57{letter-spacing:0}.cls-58,.cls-61{fill:#616365}.cls-59{letter-spacing:.01em}.cls-60{fill:#c9cac8}.cls-61{font-size:16px;font-family:AcuminProCond-Light,Acumin Pro Condensed;font-weight:300}.cls-62{letter-spacing:0}.cls-63{letter-spacing:.01em}.cls-64{letter-spacing:0}.cls-65{letter-spacing:.01em}.cls-66{letter-spacing:-.01em}.cls-67{letter-spacing:0}.cls-68{letter-spacing:.05em}.cls-69{letter-spacing:-.04em}.cls-70{letter-spacing:.03em}.cls-71{letter-spacing:.05em}.cls-72{letter-spacing:.01em}.cls-73{letter-spacing:0}.cls-74{stroke:#616365}.cls-75,.cls-76{letter-spacing:.01em}.cls-77{letter-spacing:0}.cls-78{letter-spacing:-.04em}.cls-79{letter-spacing:.01em}.cls-80{letter-spacing:.03em}.cls-81{letter-spacing:.05em}.cls-82,.cls-83{letter-spacing:0}.cls-84{letter-spacing:.02em}.cls-85{letter-spacing:0}.cls-86{letter-spacing:-.04em}.cls-87{fill:#151221}.cls-88{letter-spacing:.01em}.cls-89{fill:#201936}.cls-90{letter-spacing:-.01em}.cls-91{letter-spacing:.01em}.cls-92{fill:#2a2342}.cls-93{letter-spacing:0}.cls-94{letter-spacing:-.02em}.cls-95{fill:#3f3461}.cls-96{letter-spacing:.01em}.cls-97{letter-spacing:0}.cls-98{letter-spacing:-.08em}.cls-99{letter-spacing:.04em}.cls-100{fill:#9379e6}.cls-101{letter-spacing:.01em}.cls-102{letter-spacing:.03em}.cls-103{letter-spacing:-.03em}.cls-104{fill:#bfabff}.cls-105{letter-spacing:-.01em}.cls-106{letter-spacing:-.02em}.cls-107{letter-spacing:-.01em}.cls-108{letter-spacing:.01em}.cls-109{letter-spacing:-.01em}.cls-110{letter-spacing:.01em}.cls-111{fill:#ff7656}.cls-112{letter-spacing:-.08em}.cls-113,.cls-114{letter-spacing:-.01em}.cls-115{letter-spacing:-.04em}.cls-116{font-size:30px;font-family:AcuminProCond-Medium,Acumin Pro Condensed;font-weight:500}.cls-117{letter-spacing:.01em}.cls-118,.cls-119{letter-spacing:0}.cls-120{letter-spacing:.01em}.cls-121{letter-spacing:-.01em}.cls-122{letter-spacing:0}.cls-123{letter-spacing:.01em}.cls-124{stroke:#bb464b;stroke-width:.7px}</style></defs><title>BabylonColorPalettes</title><text class="cls-1" transform="translate(168.26 312.48)"><tspan class="cls-2">P</tspan><tspan x="7.38" y="0" class="cls-3">A</tspan><tspan x="15.49" y="0">N</tspan><tspan x="24.57" y="0" class="cls-4">T</tspan><tspan x="31.48" y="0" class="cls-5">ONE</tspan><tspan x="15.6" y="19" class="cls-6">7</tspan><tspan x="21.28" y="19" class="cls-7">4</tspan><tspan x="28.99" y="19" class="cls-8">1</tspan><tspan x="33.53" y="19">8</tspan><tspan class="cls-9"><tspan x="-6.6" y="38">R </tspan><tspan x="2.21" y="38" class="cls-10">1</tspan><tspan x="5.4" y="38" class="cls-11" xml:space="preserve">87 </tspan><tspan x="20.28" y="38">G </tspan><tspan x="29.29" y="38" class="cls-11" xml:space="preserve">70 </tspan><tspan x="44.36" y="38">B </tspan><tspan x="53.27" y="38" class="cls-12">7</tspan><tspan x="57.97" y="38" class="cls-11">5</tspan><tspan x=".53" y="55">H</tspan><tspan x="7.35" y="55" class="cls-13">E</tspan><tspan x="13.53" y="55" class="cls-14">X </tspan><tspan x="21.74" y="55" class="cls-15">B</tspan><tspan x="27.7" y="55" class="cls-11">B</tspan><tspan x="33.77" y="55" class="cls-16">4</tspan><tspan x="39.18" y="55" class="cls-17">6</tspan><tspan x="44.81" y="55" class="cls-18">4B</tspan><tspan x="-15.86" y="72">C</tspan><tspan x="-9.64" y="72" class="cls-11"> </tspan><tspan x="-7.16" y="72" class="cls-19">2</tspan><tspan x="-2.07" y="72" class="cls-11" xml:space="preserve">0 </tspan><tspan x="8.54" y="72">M </tspan><tspan x="19.4" y="72" class="cls-11" xml:space="preserve">85 </tspan><tspan x="35.2" y="72">Y </tspan><tspan x="43.51" y="72" class="cls-20" xml:space="preserve">69 </tspan><tspan x="59.42" y="72">K </tspan><tspan x="68.15" y="72" class="cls-11">7</tspan></tspan></text><rect width="128.81" height="128.81" x="132.91" y="157.28" class="cls-21"/><rect width="128.81" height="239.74" x="132.91" y="157.28" class="cls-22"/><text class="cls-1" transform="translate(314.24 312.48)"><tspan class="cls-2">P</tspan><tspan x="7.38" y="0" class="cls-3">A</tspan><tspan x="15.49" y="0">N</tspan><tspan x="24.57" y="0" class="cls-4">T</tspan><tspan x="31.48" y="0" class="cls-5">ONE</tspan><tspan x="15.52" y="19" class="cls-6">7</tspan><tspan x="21.2" y="19" class="cls-7">4</tspan><tspan x="28.92" y="19">16</tspan><tspan class="cls-9"><tspan x="-9.91" y="38">R </tspan><tspan x="-1.1" y="38" class="cls-23">2</tspan><tspan x="4.25" y="38" class="cls-24">2</tspan><tspan x="9.09" y="38" class="cls-18" xml:space="preserve">4 </tspan><tspan x="19.39" y="38">G </tspan><tspan x="28.4" y="38" class="cls-25">1</tspan><tspan x="31.62" y="38" class="cls-26">0</tspan><tspan x="37.37" y="38" class="cls-11" xml:space="preserve">4 </tspan><tspan x="47.66" y="38">B </tspan><tspan x="56.58" y="38" class="cls-27">7</tspan><tspan x="61.27" y="38" class="cls-11">5</tspan><tspan x="1.03" y="55">H</tspan><tspan x="7.84" y="55" class="cls-13">E</tspan><tspan x="14.03" y="55" class="cls-14">X </tspan><tspan x="22.23" y="55" class="cls-20">E0</tspan><tspan x="33.23" y="55" class="cls-16">6</tspan><tspan x="38.82" y="55" class="cls-19">8</tspan><tspan x="44.32" y="55" class="cls-11">4B</tspan><tspan x="-12.86" y="72">C</tspan><tspan x="-6.64" y="72" class="cls-11" xml:space="preserve"> 8 </tspan><tspan x="6.27" y="72">M </tspan><tspan x="17.12" y="72" class="cls-28">7</tspan><tspan x="21.76" y="72" class="cls-11" xml:space="preserve">3 </tspan><tspan x="31.9" y="72">Y </tspan><tspan x="40.21" y="72" class="cls-29">7</tspan><tspan x="44.76" y="72" class="cls-11" xml:space="preserve">6 </tspan><tspan x="55.24" y="72">K </tspan><tspan x="63.96" y="72" class="cls-20">0</tspan></tspan></text><rect width="128.81" height="128.81" x="278.89" y="157.28" class="cls-30"/><rect width="128.81" height="239.74" x="278.89" y="157.28" class="cls-22"/><text class="cls-1" transform="translate(460.22 312.48)"><tspan class="cls-2">P</tspan><tspan x="7.38" y="0" class="cls-3">A</tspan><tspan x="15.49" y="0">N</tspan><tspan x="24.57" y="0" class="cls-4">T</tspan><tspan x="31.48" y="0" class="cls-5">ONE</tspan><tspan x="-10.56" y="19" class="cls-31">W</tspan><tspan x=".83" y="19">a</tspan><tspan x="8.42" y="19" class="cls-32">r</tspan><tspan x="13.69" y="19" class="cls-5">m </tspan><tspan x="28.75" y="19" class="cls-33">G</tspan><tspan x="37.42" y="19" class="cls-34">r</tspan><tspan x="42.58" y="19" class="cls-4">a</tspan><tspan x="49.93" y="19">y 2</tspan><tspan class="cls-9"><tspan x="-11.72" y="38">R </tspan><tspan x="-2.9" y="38" class="cls-35">2</tspan><tspan x="2.32" y="38" class="cls-25">1</tspan><tspan x="5.55" y="38" class="cls-11" xml:space="preserve">3 </tspan><tspan x="15.69" y="38">G </tspan><tspan x="24.69" y="38" class="cls-35">2</tspan><tspan x="29.92" y="38" class="cls-36">1</tspan><tspan x="33.14" y="38" class="cls-20" xml:space="preserve">0 </tspan><tspan x="43.75" y="38">B </tspan><tspan x="52.67" y="38" class="cls-19">2</tspan><tspan x="57.77" y="38" class="cls-11">02</tspan><tspan x=".31" y="55">H</tspan><tspan x="7.13" y="55" class="cls-13">E</tspan><tspan x="13.31" y="55" class="cls-14">X </tspan><tspan x="21.52" y="55" class="cls-11">D5D2</tspan><tspan x="44.62" y="55" class="cls-37">C</tspan><tspan x="50.6" y="55" class="cls-11">A</tspan><tspan x="-13.11" y="72">C</tspan><tspan x="-6.9" y="72" class="cls-11" xml:space="preserve"> 16 </tspan><tspan x="9.35" y="72">M </tspan><tspan x="20.21" y="72" class="cls-36">1</tspan><tspan x="23.43" y="72" class="cls-11" xml:space="preserve">3 </tspan><tspan x="33.57" y="72" class="cls-38">Y </tspan><tspan x="41.88" y="72" class="cls-10">1</tspan><tspan x="45.06" y="72" class="cls-11" xml:space="preserve">8 </tspan><tspan x="55.49" y="72">K </tspan><tspan x="64.21" y="72" class="cls-11">0</tspan></tspan></text><rect width="128.81" height="128.81" x="424.87" y="157.28" class="cls-39"/><rect width="128.81" height="239.74" x="424.87" y="157.28" class="cls-22"/><text class="cls-1" transform="translate(606.21 312.48)"><tspan class="cls-2">P</tspan><tspan x="7.38" y="0" class="cls-3">A</tspan><tspan x="15.49" y="0">N</tspan><tspan x="24.57" y="0" class="cls-4">T</tspan><tspan x="31.48" y="0" class="cls-5">ONE</tspan><tspan x="-9.37" y="19" class="cls-31">W</tspan><tspan x="2.02" y="19">a</tspan><tspan x="9.61" y="19" class="cls-32">r</tspan><tspan x="14.88" y="19" class="cls-5">m </tspan><tspan x="29.94" y="19" class="cls-33">G</tspan><tspan x="38.61" y="19" class="cls-34">r</tspan><tspan x="43.78" y="19" class="cls-4">a</tspan><tspan x="51.12" y="19">y 1</tspan><tspan class="cls-9"><tspan x="-12.61" y="38">R </tspan><tspan x="-3.79" y="38" class="cls-23">2</tspan><tspan x="1.55" y="38" class="cls-24">2</tspan><tspan x="6.4" y="38" class="cls-18" xml:space="preserve">4 </tspan><tspan x="16.69" y="38">G </tspan><tspan x="25.7" y="38" class="cls-23">22</tspan><tspan x="36.39" y="38" class="cls-20" xml:space="preserve">2 </tspan><tspan x="46.41" y="38">B </tspan><tspan x="55.33" y="38" class="cls-40">2</tspan><tspan x="60.55" y="38" class="cls-18">16</tspan><tspan x=".55" y="55">H</tspan><tspan x="7.37" y="55" class="cls-13">E</tspan><tspan x="13.55" y="55" class="cls-14">X </tspan><tspan x="21.76" y="55" class="cls-20">E0D</tspan><tspan x="39.08" y="55" class="cls-41">E</tspan><tspan x="44.4" y="55" class="cls-11">D8</tspan><tspan x="-10.27" y="72">C</tspan><tspan x="-4.05" y="72" class="cls-11"> </tspan><tspan x="-1.57" y="72" class="cls-42">1</tspan><tspan x="1.57" y="72" class="cls-11" xml:space="preserve">1 </tspan><tspan x="9.83" y="72">M </tspan><tspan x="20.68" y="72" class="cls-20" xml:space="preserve">9 </tspan><tspan x="31.08" y="72">Y </tspan><tspan x="39.39" y="72" class="cls-43">1</tspan><tspan x="42.63" y="72" class="cls-20" xml:space="preserve">2 </tspan><tspan x="52.65" y="72">K </tspan><tspan x="61.37" y="72" class="cls-11">0</tspan></tspan></text><rect width="128.81" height="128.81" x="570.85" y="157.28" class="cls-44"/><rect width="128.81" height="239.74" x="570.85" y="157.28" class="cls-22"/><text class="cls-1" transform="translate(760.72 312.48)"><tspan class="cls-3">W</tspan><tspan x="11.99" y="0" class="cls-5">HI</tspan><tspan x="24.99" y="0" class="cls-45">T</tspan><tspan x="32.2" y="0">E</tspan><tspan class="cls-9"><tspan x="-22.36" y="19">R </tspan><tspan x="-13.55" y="19" class="cls-46">2</tspan><tspan x="-8.4" y="19" class="cls-11" xml:space="preserve">55 </tspan><tspan x="7.33" y="19">G </tspan><tspan x="16.33" y="19" class="cls-46">2</tspan><tspan x="21.48" y="19" class="cls-11" xml:space="preserve">55 </tspan><tspan x="37.21" y="19">B </tspan><tspan x="46.13" y="19" class="cls-29">2</tspan><tspan x="51.28" y="19" class="cls-11">55</tspan><tspan x="-6.23" y="36">H</tspan><tspan x=".59" y="36" class="cls-13">E</tspan><tspan x="6.77" y="36" class="cls-14">X </tspan><tspan x="14.98" y="36" class="cls-19">FFFFF</tspan><tspan x="40.78" y="36" class="cls-11">F</tspan><tspan x="-17.18" y="53">C</tspan><tspan x="-10.97" y="53" class="cls-11" xml:space="preserve"> 0 </tspan><tspan x="2.12" y="53">M </tspan><tspan x="12.97" y="53" class="cls-11" xml:space="preserve">0 </tspan><tspan x="23.58" y="53" class="cls-38">Y </tspan><tspan x="31.89" y="53" class="cls-11" xml:space="preserve">0 </tspan><tspan x="42.5" y="53">K </tspan><tspan x="51.22" y="53" class="cls-11">0</tspan></tspan></text><rect width="128.81" height="128.81" x="716.83" y="157.28" class="cls-47"/><rect width="128.81" height="239.74" x="716.83" y="157.28" class="cls-22"/><text class="cls-1" transform="translate(168.26 612.22)"><tspan class="cls-2">P</tspan><tspan x="7.38" y="0" class="cls-3">A</tspan><tspan x="15.49" y="0">N</tspan><tspan x="24.57" y="0" class="cls-4">T</tspan><tspan x="31.48" y="0" class="cls-5">ONE</tspan><tspan x="6.15" y="19" class="cls-4">B</tspan><tspan x="14.41" y="19" class="cls-48">l</tspan><tspan x="18.13" y="19">ack 3</tspan><tspan class="cls-9"><tspan x="-5.76" y="38">R </tspan><tspan x="3.06" y="38" class="cls-49">3</tspan><tspan x="8.48" y="38" class="cls-11" xml:space="preserve">7 </tspan><tspan x="17.9" y="38">G </tspan><tspan x="26.91" y="38" class="cls-50">4</tspan><tspan x="32.55" y="38" class="cls-11" xml:space="preserve">4 </tspan><tspan x="42.85" y="38">B </tspan><tspan x="51.77" y="38" class="cls-26">3</tspan><tspan x="57.04" y="38" class="cls-11">8</tspan><tspan x="1.78" y="55">H</tspan><tspan x="8.59" y="55" class="cls-13">E</tspan><tspan x="14.78" y="55" class="cls-14">X </tspan><tspan x="22.98" y="55" class="cls-46">2</tspan><tspan x="28.13" y="55" class="cls-11">52C26</tspan><tspan x="-18.56" y="72">C</tspan><tspan x="-12.35" y="72" class="cls-11"> </tspan><tspan x="-9.87" y="72" class="cls-51">7</tspan><tspan x="-5.16" y="72" class="cls-20" xml:space="preserve">2 </tspan><tspan x="4.86" y="72">M </tspan><tspan x="15.72" y="72" class="cls-52">4</tspan><tspan x="21.13" y="72" class="cls-20" xml:space="preserve">6 </tspan><tspan x="31.6" y="72">Y </tspan><tspan x="39.91" y="72" class="cls-11" xml:space="preserve">56 </tspan><tspan x="55.77" y="72">K </tspan><tspan x="64.49" y="72" class="cls-11">95</tspan></tspan></text><rect width="128.81" height="128.81" x="132.91" y="457.03" class="cls-53"/><rect width="128.81" height="239.74" x="132.91" y="457.03" class="cls-22"/><text class="cls-1" transform="translate(314.24 612.22)"><tspan class="cls-2">P</tspan><tspan x="7.38" y="0" class="cls-3">A</tspan><tspan x="15.49" y="0">N</tspan><tspan x="24.57" y="0" class="cls-4">T</tspan><tspan x="31.48" y="0" class="cls-5">ONE</tspan><tspan x="-8.87" y="19" class="cls-54">C</tspan><tspan x="-.66" y="19" class="cls-55">o</tspan><tspan x="7.02" y="19">ol </tspan><tspan x="21.62" y="19" class="cls-33">G</tspan><tspan x="30.29" y="19" class="cls-34">r</tspan><tspan x="35.46" y="19" class="cls-4">a</tspan><tspan x="42.81" y="19">y 10</tspan><tspan class="cls-9"><tspan x="-6.48" y="38">R </tspan><tspan x="2.33" y="38" class="cls-19">9</tspan><tspan x="7.81" y="38" class="cls-11" xml:space="preserve">7 </tspan><tspan x="17.23" y="38">G </tspan><tspan x="26.24" y="38" class="cls-16">9</tspan><tspan x="31.75" y="38" class="cls-20" xml:space="preserve">9 </tspan><tspan x="42.15" y="38">B </tspan><tspan x="51.07" y="38" class="cls-36">1</tspan><tspan x="54.29" y="38" class="cls-11">01</tspan><tspan x="2.45" y="55">H</tspan><tspan x="9.26" y="55" class="cls-13">E</tspan><tspan x="15.45" y="55" class="cls-14">X </tspan><tspan x="23.65" y="55" class="cls-11">61</tspan><tspan x="32.46" y="55" class="cls-17">6</tspan><tspan x="38.08" y="55" class="cls-56">3</tspan><tspan x="43.32" y="55" class="cls-16">6</tspan><tspan x="48.91" y="55" class="cls-11">5</tspan><tspan x="-18.87" y="72">C</tspan><tspan x="-12.65" y="72" class="cls-11"> </tspan><tspan x="-10.17" y="72" class="cls-26">3</tspan><tspan x="-4.89" y="72" class="cls-11" xml:space="preserve">8 </tspan><tspan x="5.53" y="72" class="cls-38">M </tspan><tspan x="16.39" y="72" class="cls-37">2</tspan><tspan x="21.59" y="72" class="cls-11" xml:space="preserve">9 </tspan><tspan x="31.99" y="72" class="cls-38">Y </tspan><tspan x="40.29" y="72" class="cls-19">2</tspan><tspan x="45.39" y="72" class="cls-20" xml:space="preserve">0 </tspan><tspan x="56" y="72">K </tspan><tspan x="64.72" y="72" class="cls-57">5</tspan><tspan x="70.15" y="72" class="cls-11">8</tspan></tspan></text><rect width="128.81" height="128.81" x="278.89" y="457.03" class="cls-58"/><rect width="128.81" height="239.74" x="278.89" y="457.03" class="cls-22"/><text class="cls-1" transform="translate(460.22 612.22)"><tspan class="cls-2">P</tspan><tspan x="7.38" y="0" class="cls-3">A</tspan><tspan x="15.49" y="0">N</tspan><tspan x="24.57" y="0" class="cls-4">T</tspan><tspan x="31.48" y="0" class="cls-5">ONE</tspan><tspan x="-6.32" y="19" class="cls-54">C</tspan><tspan x="1.89" y="19" class="cls-55">o</tspan><tspan x="9.57" y="19">ol </tspan><tspan x="24.17" y="19" class="cls-33">G</tspan><tspan x="32.84" y="19" class="cls-34">r</tspan><tspan x="38.01" y="19" class="cls-4">a</tspan><tspan x="45.36" y="19">y 3</tspan><tspan class="cls-9"><tspan x="-13.06" y="38">R </tspan><tspan x="-4.25" y="38" class="cls-19">2</tspan><tspan x=".85" y="38" class="cls-20" xml:space="preserve">01 </tspan><tspan x="14.74" y="38">G </tspan><tspan x="23.75" y="38" class="cls-19">2</tspan><tspan x="28.85" y="38" class="cls-20" xml:space="preserve">02 </tspan><tspan x="44.51" y="38">B </tspan><tspan x="53.43" y="38" class="cls-19">2</tspan><tspan x="58.53" y="38" class="cls-11">00</tspan><tspan x=".58" y="55">H</tspan><tspan x="7.39" y="55" class="cls-13">E</tspan><tspan x="13.58" y="55" class="cls-14">X </tspan><tspan x="21.78" y="55" class="cls-11">C9</tspan><tspan x="33.05" y="55" class="cls-59">C</tspan><tspan x="39.03" y="55" class="cls-11">AC8</tspan><tspan x="-9.74" y="72">C</tspan><tspan x="-3.53" y="72" class="cls-11" xml:space="preserve"> 8 </tspan><tspan x="9.38" y="72">M </tspan><tspan x="20.24" y="72" class="cls-11" xml:space="preserve">5 </tspan><tspan x="30.58" y="72">Y </tspan><tspan x="38.89" y="72" class="cls-11" xml:space="preserve">6 </tspan><tspan x="49.37" y="72">K </tspan><tspan x="58.09" y="72" class="cls-25">1</tspan><tspan x="61.31" y="72" class="cls-11">3</tspan></tspan></text><rect width="128.81" height="128.81" x="424.87" y="457.03" class="cls-60"/><rect width="128.81" height="239.74" x="424.87" y="457.03" class="cls-22"/><text class="cls-1" transform="translate(614.74 612.22)"><tspan class="cls-3">W</tspan><tspan x="11.99" y="0" class="cls-5">HI</tspan><tspan x="24.99" y="0" class="cls-45">T</tspan><tspan x="32.2" y="0">E</tspan><tspan class="cls-9"><tspan x="-22.36" y="19">R </tspan><tspan x="-13.55" y="19" class="cls-46">2</tspan><tspan x="-8.4" y="19" class="cls-11" xml:space="preserve">55 </tspan><tspan x="7.33" y="19">G </tspan><tspan x="16.33" y="19" class="cls-46">2</tspan><tspan x="21.48" y="19" class="cls-11" xml:space="preserve">55 </tspan><tspan x="37.21" y="19">B </tspan><tspan x="46.13" y="19" class="cls-29">2</tspan><tspan x="51.28" y="19" class="cls-11">55</tspan><tspan x="-6.23" y="36">H</tspan><tspan x=".59" y="36" class="cls-13">E</tspan><tspan x="6.77" y="36" class="cls-14">X </tspan><tspan x="14.98" y="36" class="cls-19">FFFFF</tspan><tspan x="40.78" y="36" class="cls-11">F</tspan><tspan x="-17.18" y="53">C</tspan><tspan x="-10.97" y="53" class="cls-11" xml:space="preserve"> 0 </tspan><tspan x="2.12" y="53">M </tspan><tspan x="12.97" y="53" class="cls-11" xml:space="preserve">0 </tspan><tspan x="23.58" y="53" class="cls-38">Y </tspan><tspan x="31.89" y="53" class="cls-11" xml:space="preserve">0 </tspan><tspan x="42.5" y="53">K </tspan><tspan x="51.22" y="53" class="cls-11">0</tspan></tspan></text><rect width="128.81" height="128.81" x="570.85" y="457.03" class="cls-47"/><rect width="128.81" height="239.74" x="570.85" y="457.03" class="cls-22"/><text class="cls-61" transform="translate(132.92 138.61)"><tspan class="cls-62">F</tspan><tspan x="6.18" y="0">U</tspan><tspan x="13.94" y="0" class="cls-63">L</tspan><tspan x="19.97" y="0" class="cls-64">L </tspan><tspan x="28.99" y="0" class="cls-65">C</tspan><tspan x="36.14" y="0">O</tspan><tspan x="43.69" y="0" class="cls-66">L</tspan><tspan x="49.44" y="0">OR ID</tspan><tspan x="78.05" y="0" class="cls-67">E</tspan><tspan x="84.41" y="0">N</tspan><tspan x="92.53" y="0" class="cls-65">T</tspan><tspan x="98.38" y="0">I</tspan><tspan x="101.55" y="0" class="cls-68">T</tspan><tspan x="108.14" y="0">Y </tspan><tspan x="117.56" y="0" class="cls-69">P</tspan><tspan x="123.88" y="0">A</tspan><tspan x="130.88" y="0" class="cls-63">L</tspan><tspan x="136.91" y="0" class="cls-70">E</tspan><tspan x="143.79" y="0" class="cls-71">T</tspan><tspan x="150.27" y="0" class="cls-72">T</tspan><tspan x="156.12" y="0" class="cls-73">E</tspan></text><line x1="132.85" x2="845.85" y1="146.56" y2="146.56" class="cls-74"/><text class="cls-61" transform="translate(132.92 438.36)">MON<tspan x="25.3" y="0" class="cls-75">O</tspan><tspan x="32.98" y="0">CH</tspan><tspan x="47.93" y="0" class="cls-76">R</tspan><tspan x="55.2" y="0">OME ID</tspan><tspan x="92.69" y="0" class="cls-77">E</tspan><tspan x="99.05" y="0">N</tspan><tspan x="107.17" y="0" class="cls-72">T</tspan><tspan x="113.02" y="0">I</tspan><tspan x="116.19" y="0" class="cls-68">T</tspan><tspan x="122.78" y="0">Y </tspan><tspan x="132.21" y="0" class="cls-78">P</tspan><tspan x="138.52" y="0" class="cls-73">A</tspan><tspan x="145.52" y="0" class="cls-79">L</tspan><tspan x="151.55" y="0" class="cls-80">E</tspan><tspan x="158.43" y="0" class="cls-81">T</tspan><tspan x="164.91" y="0" class="cls-65">T</tspan><tspan x="170.76" y="0">E</tspan></text><line x1="132.85" x2="699.85" y1="446.3" y2="446.3" class="cls-74"/><text class="cls-1" transform="translate(170.85 911.96)">C<tspan x="8.13" y="0" class="cls-82">U</tspan><tspan x="16.98" y="0">S</tspan><tspan x="24.9" y="0" class="cls-4">T</tspan><tspan x="31.82" y="0">OM</tspan><tspan class="cls-83"><tspan x="5.75" y="19">F</tspan><tspan x="12.96" y="19" class="cls-55">o</tspan><tspan x="20.65" y="19" class="cls-54">o</tspan><tspan x="28.35" y="19" class="cls-5">ter</tspan></tspan><tspan class="cls-9"><tspan x="-6.41" y="38">R </tspan><tspan x="2.4" y="38" class="cls-35">2</tspan><tspan x="7.63" y="38" class="cls-11" xml:space="preserve">1 </tspan><tspan x="15.88" y="38">G </tspan><tspan x="24.89" y="38" class="cls-10">1</tspan><tspan x="28.08" y="38" class="cls-11" xml:space="preserve">8 </tspan><tspan x="38.5" y="38">B </tspan><tspan x="47.42" y="38" class="cls-84">3</tspan><tspan x="52.8" y="38" class="cls-20">3</tspan><tspan x="2.27" y="55">H</tspan><tspan x="9.08" y="55" class="cls-13">E</tspan><tspan x="15.27" y="55" class="cls-14">X </tspan><tspan x="23.47" y="55" class="cls-57">1</tspan><tspan x="26.81" y="55" class="cls-11">5</tspan><tspan x="32.2" y="55" class="cls-85">1</tspan><tspan x="35.43" y="55" class="cls-23">2</tspan><tspan x="40.78" y="55" class="cls-35">2</tspan><tspan x="46" y="55" class="cls-11">1</tspan><tspan x="-19.3" y="72">C</tspan><tspan x="-13.08" y="72" class="cls-11"> </tspan><tspan x="-10.6" y="72" class="cls-15">8</tspan><tspan x="-5.24" y="72" class="cls-11" xml:space="preserve">1 </tspan><tspan x="3.01" y="72">M </tspan><tspan x="13.87" y="72" class="cls-11" xml:space="preserve">78 </tspan><tspan x="28.75" y="72">Y </tspan><tspan x="37.06" y="72" class="cls-11" xml:space="preserve">56 </tspan><tspan x="52.92" y="72" class="cls-38">K </tspan><tspan x="61.64" y="72" class="cls-86">7</tspan><tspan x="65.53" y="72" class="cls-18">4</tspan></tspan></text><rect width="128.81" height="128.81" x="132.91" y="756.77" class="cls-87"/><rect width="128.81" height="239.74" x="132.91" y="756.77" class="cls-22"/><text class="cls-1" transform="translate(316.83 911.96)">C<tspan x="8.13" y="0" class="cls-82">U</tspan><tspan x="16.98" y="0">S</tspan><tspan x="24.9" y="0" class="cls-4">T</tspan><tspan x="31.82" y="0">OM</tspan><tspan x="3.49" y="19">H</tspan><tspan x="12.39" y="19" class="cls-83">e</tspan><tspan x="19.79" y="19">ader</tspan><tspan class="cls-9"><tspan x="-8.43" y="38">R </tspan><tspan x=".38" y="38" class="cls-29">3</tspan><tspan x="5.64" y="38" class="cls-20" xml:space="preserve">2 </tspan><tspan x="15.67" y="38">G </tspan><tspan x="24.68" y="38" class="cls-29">2</tspan><tspan x="29.82" y="38" class="cls-11" xml:space="preserve">5 </tspan><tspan x="40.17" y="38">B </tspan><tspan x="49.09" y="38" class="cls-88">5</tspan><tspan x="54.67" y="38" class="cls-11">4</tspan><tspan x=".09" y="55">H</tspan><tspan x="6.9" y="55" class="cls-13">E</tspan><tspan x="13.09" y="55" class="cls-14">X </tspan><tspan x="21.29" y="55" class="cls-19">2</tspan><tspan x="26.38" y="55" class="cls-20">0</tspan><tspan x="32.03" y="55" class="cls-36">1</tspan><tspan x="35.25" y="55" class="cls-19">9</tspan><tspan x="40.72" y="55" class="cls-56">3</tspan><tspan x="45.96" y="55" class="cls-11">6</tspan><tspan x="-21.32" y="72">C</tspan><tspan x="-15.11" y="72" class="cls-11" xml:space="preserve"> 88 </tspan><tspan x="3.26" y="72">M </tspan><tspan x="14.11" y="72" class="cls-11" xml:space="preserve">88 </tspan><tspan x="30" y="72">Y </tspan><tspan x="38.31" y="72" class="cls-84">4</tspan><tspan x="43.84" y="72" class="cls-18" xml:space="preserve">7 </tspan><tspan x="53.27" y="72">K </tspan><tspan x="61.99" y="72" class="cls-57">5</tspan><tspan x="67.42" y="72" class="cls-11">8</tspan></tspan></text><rect width="128.81" height="128.81" x="278.89" y="756.77" class="cls-89"/><rect width="128.81" height="239.74" x="278.89" y="756.77" class="cls-22"/><text class="cls-1" transform="translate(462.82 911.96)">C<tspan x="8.13" y="0" class="cls-82">U</tspan><tspan x="16.98" y="0">S</tspan><tspan x="24.9" y="0" class="cls-4">T</tspan><tspan x="31.82" y="0">OM</tspan><tspan x="-11.67" y="19" class="cls-83">B</tspan><tspan x="-3.22" y="19">ackgro</tspan><tspan x="39.62" y="19" class="cls-90">u</tspan><tspan x="47.34" y="19" class="cls-5">nd</tspan><tspan class="cls-9"><tspan x="-8.69" y="38">R </tspan><tspan x=".12" y="38" class="cls-28">4</tspan><tspan x="5.63" y="38" class="cls-20" xml:space="preserve">2 </tspan><tspan x="15.65" y="38">G </tspan><tspan x="24.66" y="38" class="cls-29">3</tspan><tspan x="29.93" y="38" class="cls-11" xml:space="preserve">5 </tspan><tspan x="40.28" y="38">B </tspan><tspan x="49.19" y="38" class="cls-19">6</tspan><tspan x="54.74" y="38" class="cls-11">6</tspan><tspan x="-.84" y="55">H</tspan><tspan x="5.97" y="55" class="cls-13">E</tspan><tspan x="12.16" y="55" class="cls-14">X </tspan><tspan x="20.36" y="55" class="cls-11">2A</tspan><tspan x="31.25" y="55" class="cls-91">2</tspan><tspan x="36.49" y="55" class="cls-35">3</tspan><tspan x="41.83" y="55" class="cls-28">4</tspan><tspan x="47.35" y="55" class="cls-11">2</tspan><tspan x="-21.37" y="72">C</tspan><tspan x="-15.16" y="72" class="cls-11" xml:space="preserve"> 86 </tspan><tspan x="3.27" y="72">M </tspan><tspan x="14.12" y="72" class="cls-11" xml:space="preserve">87 </tspan><tspan x="29" y="72">Y </tspan><tspan x="37.31" y="72" class="cls-50">4</tspan><tspan x="42.95" y="72" class="cls-11" xml:space="preserve">4 </tspan><tspan x="53.25" y="72">K </tspan><tspan x="61.97" y="72" class="cls-35">4</tspan><tspan x="67.47" y="72" class="cls-11">8</tspan></tspan></text><rect width="128.81" height="128.81" x="424.87" y="756.77" class="cls-92"/><rect width="128.81" height="239.74" x="424.87" y="756.77" class="cls-22"/><text class="cls-1" transform="translate(608.8 911.96)">C<tspan x="8.13" y="0" class="cls-82">U</tspan><tspan x="16.98" y="0">S</tspan><tspan x="24.9" y="0" class="cls-4">T</tspan><tspan x="31.82" y="0">OM</tspan><tspan x="-4.6" y="19" class="cls-54">C</tspan><tspan x="3.61" y="19">on</tspan><tspan x="19.22" y="19" class="cls-55">t</tspan><tspan x="23.94" y="19">ainer</tspan><tspan class="cls-9"><tspan x="-8.14" y="38">R </tspan><tspan x=".67" y="38" class="cls-17">6</tspan><tspan x="6.3" y="38" class="cls-11" xml:space="preserve">3 </tspan><tspan x="16.44" y="38">G </tspan><tspan x="25.45" y="38" class="cls-11" xml:space="preserve">52 </tspan><tspan x="40.85" y="38">B </tspan><tspan x="49.77" y="38" class="cls-93">9</tspan><tspan x="55.24" y="38" class="cls-18">7</tspan><tspan x=".26" y="55">H</tspan><tspan x="7.07" y="55" class="cls-13">E</tspan><tspan x="13.26" y="55" class="cls-14">X </tspan><tspan x="21.46" y="55" class="cls-11">3F</tspan><tspan x="31.75" y="55" class="cls-35">3</tspan><tspan x="37.1" y="55" class="cls-16">4</tspan><tspan x="42.5" y="55" class="cls-11">61</tspan><tspan x="-20.76" y="72">C</tspan><tspan x="-14.55" y="72" class="cls-11" xml:space="preserve"> 85 </tspan><tspan x="3.74" y="72">M </tspan><tspan x="14.59" y="72" class="cls-11" xml:space="preserve">87 </tspan><tspan x="29.48" y="72">Y </tspan><tspan x="37.79" y="72" class="cls-35">3</tspan><tspan x="43.13" y="72" class="cls-11" xml:space="preserve">4 </tspan><tspan x="53.42" y="72">K </tspan><tspan x="62.15" y="72" class="cls-94">2</tspan><tspan x="67" y="72" class="cls-11">4</tspan></tspan></text><rect width="128.81" height="128.81" x="570.85" y="756.77" class="cls-95"/><rect width="128.81" height="239.74" x="570.85" y="756.77" class="cls-22"/><text class="cls-1" transform="translate(754.78 911.96)">C<tspan x="8.13" y="0" class="cls-82">U</tspan><tspan x="16.98" y="0">S</tspan><tspan x="24.9" y="0" class="cls-4">T</tspan><tspan x="31.82" y="0">OM</tspan><tspan x="-1.48" y="19" class="cls-96">L</tspan><tspan x="5.76" y="19" class="cls-97">ink </tspan><tspan x="28" y="19" class="cls-98">T</tspan><tspan x="33.78" y="19" class="cls-33">e</tspan><tspan x="41.28" y="19" class="cls-99">x</tspan><tspan x="48.38" y="19">t</tspan><tspan class="cls-9"><tspan x="-13.15" y="38">R </tspan><tspan x="-4.33" y="38" class="cls-11">1</tspan><tspan x="-1.04" y="38" class="cls-84">4</tspan><tspan x="4.49" y="38" class="cls-11" xml:space="preserve">7 </tspan><tspan x="13.92" y="38">G </tspan><tspan x="22.93" y="38" class="cls-85">1</tspan><tspan x="26.16" y="38" class="cls-35">2</tspan><tspan x="31.39" y="38" class="cls-11" xml:space="preserve">1 </tspan><tspan x="39.64" y="38">B </tspan><tspan x="48.56" y="38" class="cls-28">2</tspan><tspan x="53.8" y="38" class="cls-46">3</tspan><tspan x="59.07" y="38" class="cls-11">0</tspan><tspan x="-.72" y="55">H</tspan><tspan x="6.09" y="55" class="cls-13">E</tspan><tspan x="12.28" y="55" class="cls-14">X </tspan><tspan x="20.48" y="55" class="cls-19">9</tspan><tspan x="25.96" y="55" class="cls-49">3</tspan><tspan x="31.38" y="55" class="cls-37">7</tspan><tspan x="35.98" y="55" class="cls-11">9E6</tspan><tspan x="-17" y="72">C</tspan><tspan x="-10.78" y="72" class="cls-11" xml:space="preserve"> 51 </tspan><tspan x="5.34" y="72" class="cls-38">M </tspan><tspan x="16.19" y="72" class="cls-11" xml:space="preserve">56 </tspan><tspan x="32.05" y="72">Y </tspan><tspan x="40.36" y="72" class="cls-11" xml:space="preserve">0 </tspan><tspan x="50.97" y="72">K </tspan><tspan x="59.69" y="72" class="cls-25">1</tspan><tspan x="62.91" y="72" class="cls-11">0</tspan></tspan></text><rect width="128.81" height="128.81" x="716.83" y="756.77" class="cls-100"/><rect width="128.81" height="239.74" x="716.83" y="756.77" class="cls-22"/><text class="cls-1" transform="translate(900.76 911.96)">C<tspan x="8.13" y="0" class="cls-82">U</tspan><tspan x="16.98" y="0">S</tspan><tspan x="24.9" y="0" class="cls-4">T</tspan><tspan x="31.82" y="0">OM</tspan><tspan x="-7.14" y="19" class="cls-96">L</tspan><tspan x=".1" y="19" class="cls-97">ink Ho</tspan><tspan x="38.86" y="19" class="cls-3">v</tspan><tspan x="45.9" y="19">er</tspan><tspan class="cls-9"><tspan x="-12.28" y="38">R </tspan><tspan x="-3.47" y="38" class="cls-25">1</tspan><tspan x="-.24" y="38" class="cls-11" xml:space="preserve">91 </tspan><tspan x="13.44" y="38">G </tspan><tspan x="22.45" y="38" class="cls-101">1</tspan><tspan x="25.87" y="38" class="cls-102">7</tspan><tspan x="30.76" y="38" class="cls-18" xml:space="preserve">1 </tspan><tspan x="39.01" y="38">B </tspan><tspan x="47.93" y="38" class="cls-46">2</tspan><tspan x="53.08" y="38" class="cls-11">55</tspan><tspan x="-1.21" y="55">H</tspan><tspan x="5.6" y="55" class="cls-13">E</tspan><tspan x="11.79" y="55" class="cls-14">X </tspan><tspan x="19.99" y="55" class="cls-15">B</tspan><tspan x="25.96" y="55" class="cls-103">F</tspan><tspan x="30.73" y="55" class="cls-41">A</tspan><tspan x="36.52" y="55" class="cls-15">B</tspan><tspan x="42.49" y="55" class="cls-19">F</tspan><tspan x="47.65" y="55" class="cls-11">F</tspan><tspan x="-15.68" y="72">C</tspan><tspan x="-9.46" y="72" class="cls-11"> </tspan><tspan x="-6.98" y="72" class="cls-50">2</tspan><tspan x="-1.61" y="72" class="cls-11" xml:space="preserve">7 </tspan><tspan x="7.81" y="72">M </tspan><tspan x="18.67" y="72" class="cls-29">3</tspan><tspan x="23.93" y="72" class="cls-20" xml:space="preserve">2 </tspan><tspan x="33.96" y="72">Y </tspan><tspan x="42.26" y="72" class="cls-11" xml:space="preserve">0 </tspan><tspan x="52.87" y="72">K </tspan><tspan x="61.59" y="72" class="cls-11">0</tspan></tspan></text><rect width="128.81" height="128.81" x="862.82" y="756.77" class="cls-104"/><rect width="128.81" height="239.74" x="862.82" y="756.77" class="cls-22"/><text class="cls-1" transform="translate(1046.74 911.96)">C<tspan x="8.13" y="0" class="cls-82">U</tspan><tspan x="16.98" y="0">S</tspan><tspan x="24.9" y="0" class="cls-4">T</tspan><tspan x="31.82" y="0">OM</tspan><tspan class="cls-105"><tspan x="-14.51" y="19">B</tspan><tspan x="-6.21" y="19" class="cls-7">u</tspan><tspan x="1.95" y="19" class="cls-106">t</tspan><tspan x="6.28" y="19" class="cls-5">ton Ho</tspan><tspan x="46.23" y="19" class="cls-3">v</tspan><tspan x="53.27" y="19" class="cls-97">er</tspan></tspan><tspan class="cls-9"><tspan x="-9.2" y="38">R </tspan><tspan x="-.38" y="38" class="cls-10">1</tspan><tspan x="2.8" y="38" class="cls-11" xml:space="preserve">87 </tspan><tspan x="17.69" y="38">G </tspan><tspan x="26.7" y="38" class="cls-11" xml:space="preserve">70 </tspan><tspan x="41.76" y="38">B </tspan><tspan x="50.68" y="38" class="cls-12">7</tspan><tspan x="55.37" y="38" class="cls-11">5</tspan><tspan x="-2.06" y="55">H</tspan><tspan x="4.75" y="55" class="cls-13">E</tspan><tspan x="10.94" y="55" class="cls-14">X </tspan><tspan x="19.14" y="55" class="cls-15">B</tspan><tspan x="25.11" y="55" class="cls-11">B</tspan><tspan x="31.18" y="55" class="cls-16">4</tspan><tspan x="36.59" y="55" class="cls-17">6</tspan><tspan x="42.22" y="55" class="cls-18">4B</tspan><tspan x="-18.61" y="72">C</tspan><tspan x="-12.4" y="72" class="cls-11"> </tspan><tspan x="-9.92" y="72" class="cls-19">2</tspan><tspan x="-4.82" y="72" class="cls-11" xml:space="preserve">0 </tspan><tspan x="5.79" y="72">M </tspan><tspan x="16.64" y="72" class="cls-11" xml:space="preserve">85 </tspan><tspan x="32.45" y="72">Y 6</tspan><tspan x="46.59" y="72" class="cls-20" xml:space="preserve">9 </tspan><tspan x="56.99" y="72">K </tspan><tspan x="65.72" y="72" class="cls-11">7</tspan></tspan></text><rect width="128.81" height="128.81" x="1008.8" y="756.77" class="cls-21"/><rect width="128.81" height="239.74" x="1008.8" y="756.77" class="cls-22"/><text class="cls-1" transform="translate(1192.72 911.96)">C<tspan x="8.13" y="0" class="cls-82">U</tspan><tspan x="16.98" y="0">S</tspan><tspan x="24.9" y="0" class="cls-4">T</tspan><tspan x="31.82" y="0">OM</tspan><tspan x="-15.04" y="19" class="cls-107">M</tspan><tspan x="-4.12" y="19">enu Ho</tspan><tspan x="38.92" y="19" class="cls-3">v</tspan><tspan x="45.96" y="19" class="cls-5">er 1</tspan><tspan class="cls-9"><tspan x="-10.02" y="38">R </tspan><tspan x="-1.21" y="38" class="cls-23">2</tspan><tspan x="4.14" y="38" class="cls-24">2</tspan><tspan x="8.99" y="38" class="cls-18">4 </tspan><tspan x="16.8" y="38">G </tspan><tspan x="25.81" y="38" class="cls-36">1</tspan><tspan x="29.03" y="38" class="cls-108">0</tspan><tspan x="34.78" y="38" class="cls-11">4 </tspan><tspan x="42.59" y="38">B </tspan><tspan x="51.51" y="38" class="cls-27">7</tspan><tspan x="56.2" y="38" class="cls-11">5</tspan><tspan x="-1.56" y="55">H</tspan><tspan x="5.25" y="55" class="cls-13">E</tspan><tspan x="11.44" y="55" class="cls-14">X </tspan><tspan x="19.64" y="55" class="cls-20">E0</tspan><tspan x="30.64" y="55" class="cls-16">6</tspan><tspan x="36.23" y="55" class="cls-19">8</tspan><tspan x="41.72" y="55" class="cls-11">4B</tspan><tspan x="-15.45" y="72">C</tspan><tspan x="-9.24" y="72" class="cls-11" xml:space="preserve"> 8 </tspan><tspan x="3.67" y="72">M </tspan><tspan x="14.52" y="72" class="cls-28">7</tspan><tspan x="19.16" y="72" class="cls-11" xml:space="preserve">3 </tspan><tspan x="29.3" y="72">Y </tspan><tspan x="37.61" y="72" class="cls-12">7</tspan><tspan x="42.3" y="72" class="cls-18" xml:space="preserve">5 </tspan><tspan x="52.65" y="72">K </tspan><tspan x="61.37" y="72" class="cls-11">0</tspan></tspan></text><rect width="128.81" height="128.81" x="1154.78" y="756.77" class="cls-30"/><rect width="128.81" height="239.74" x="1154.78" y="756.77" class="cls-22"/><text class="cls-1" transform="translate(1338.71 911.96)">C<tspan x="8.13" y="0" class="cls-82">U</tspan><tspan x="16.98" y="0">S</tspan><tspan x="24.9" y="0" class="cls-4">T</tspan><tspan x="31.82" y="0">OM</tspan><tspan x="-16.23" y="19" class="cls-107">M</tspan><tspan x="-5.31" y="19">enu Ho</tspan><tspan x="37.73" y="19" class="cls-3">v</tspan><tspan x="44.77" y="19" class="cls-5">er 2</tspan><tspan class="cls-9"><tspan x="-11.89" y="38">R </tspan><tspan x="-3.08" y="38" class="cls-46">2</tspan><tspan x="2.07" y="38" class="cls-11" xml:space="preserve">55 </tspan><tspan x="17.8" y="38">G </tspan><tspan x="26.81" y="38" class="cls-109">1</tspan><tspan x="29.95" y="38" class="cls-15">1</tspan><tspan x="33.14" y="38" class="cls-11" xml:space="preserve">8 </tspan><tspan x="43.56" y="38">B </tspan><tspan x="52.48" y="38" class="cls-11">86</tspan><tspan x="-.48" y="55">H</tspan><tspan x="6.33" y="55" class="cls-13">E</tspan><tspan x="12.52" y="55" class="cls-14">X </tspan><tspan x="20.72" y="55" class="cls-19">F</tspan><tspan x="25.88" y="55" class="cls-11">F</tspan><tspan x="31.01" y="55" class="cls-29">7</tspan><tspan x="35.56" y="55" class="cls-16">6</tspan><tspan x="41.15" y="55" class="cls-11">56</tspan><tspan x="-15.7" y="72">C</tspan><tspan x="-9.49" y="72" class="cls-11" xml:space="preserve"> 0 </tspan><tspan x="3.6" y="72">M </tspan><tspan x="14.46" y="72" class="cls-101">6</tspan><tspan x="20.1" y="72" class="cls-11" xml:space="preserve">7 </tspan><tspan x="29.52" y="72">Y </tspan><tspan x="37.83" y="72" class="cls-110">6</tspan><tspan x="43.47" y="72" class="cls-18" xml:space="preserve">7 </tspan><tspan x="52.9" y="72" class="cls-38">K </tspan><tspan x="61.62" y="72" class="cls-11">0</tspan></tspan></text><rect width="128.81" height="128.81" x="1300.76" y="756.77" class="cls-111"/><rect width="128.81" height="239.74" x="1300.76" y="756.77" class="cls-22"/><text class="cls-1" transform="translate(1484.69 911.96)">C<tspan x="8.13" y="0" class="cls-82">U</tspan><tspan x="16.98" y="0">S</tspan><tspan x="24.9" y="0" class="cls-4">T</tspan><tspan x="31.82" y="0">OM</tspan><tspan x="13.26" y="19" class="cls-112">T</tspan><tspan x="19.04" y="19" class="cls-33">e</tspan><tspan x="26.54" y="19" class="cls-99">x</tspan><tspan x="33.64" y="19">t</tspan><tspan class="cls-9"><tspan x="-14.31" y="38">R </tspan><tspan x="-5.5" y="38" class="cls-35">2</tspan><tspan x="-.27" y="38" class="cls-25">1</tspan><tspan x="2.95" y="38" class="cls-11" xml:space="preserve">3 </tspan><tspan x="13.09" y="38">G </tspan><tspan x="22.1" y="38" class="cls-35">2</tspan><tspan x="27.33" y="38" class="cls-36">1</tspan><tspan x="30.55" y="38" class="cls-20" xml:space="preserve">0 </tspan><tspan x="41.16" y="38">B </tspan><tspan x="50.08" y="38" class="cls-19">2</tspan><tspan x="55.17" y="38" class="cls-11">02</tspan><tspan x="-2.28" y="55">H</tspan><tspan x="4.53" y="55" class="cls-13">E</tspan><tspan x="10.72" y="55" class="cls-14">X </tspan><tspan x="18.92" y="55" class="cls-11">D5D2</tspan><tspan x="42.02" y="55" class="cls-37">C</tspan><tspan x="48" y="55" class="cls-11">A</tspan><tspan x="-15.7" y="72">C</tspan><tspan x="-9.49" y="72" class="cls-11" xml:space="preserve"> 16 </tspan><tspan x="6.76" y="72">M </tspan><tspan x="17.62" y="72" class="cls-36">1</tspan><tspan x="20.84" y="72" class="cls-11" xml:space="preserve">3 </tspan><tspan x="30.98" y="72" class="cls-38">Y </tspan><tspan x="39.29" y="72" class="cls-10">1</tspan><tspan x="42.47" y="72" class="cls-11" xml:space="preserve">8 </tspan><tspan x="52.9" y="72">K </tspan><tspan x="61.62" y="72" class="cls-11">0</tspan></tspan></text><rect width="128.81" height="128.81" x="1446.74" y="756.77" class="cls-39"/><rect width="128.81" height="239.74" x="1446.74" y="756.77" class="cls-22"/><text class="cls-1" transform="translate(1636.61 911.96)"><tspan class="cls-3">W</tspan><tspan x="11.99" y="0" class="cls-5">HI</tspan><tspan x="24.99" y="0" class="cls-45">T</tspan><tspan x="32.2" y="0">E</tspan><tspan class="cls-9"><tspan x="-22.36" y="19">R </tspan><tspan x="-13.55" y="19" class="cls-46">2</tspan><tspan x="-8.4" y="19" class="cls-11" xml:space="preserve">55 </tspan><tspan x="7.33" y="19">G </tspan><tspan x="16.33" y="19" class="cls-46">2</tspan><tspan x="21.48" y="19" class="cls-11" xml:space="preserve">55 </tspan><tspan x="37.21" y="19">B </tspan><tspan x="46.13" y="19" class="cls-29">2</tspan><tspan x="51.28" y="19" class="cls-11">55</tspan><tspan x="-6.23" y="36">H</tspan><tspan x=".59" y="36" class="cls-13">E</tspan><tspan x="6.77" y="36" class="cls-14">X </tspan><tspan x="14.98" y="36" class="cls-19">FFFFF</tspan><tspan x="40.78" y="36" class="cls-11">F</tspan><tspan x="-17.18" y="53">C</tspan><tspan x="-10.97" y="53" class="cls-11" xml:space="preserve"> 0 </tspan><tspan x="2.12" y="53">M </tspan><tspan x="12.97" y="53" class="cls-11" xml:space="preserve">0 </tspan><tspan x="23.58" y="53" class="cls-38">Y </tspan><tspan x="31.89" y="53" class="cls-11" xml:space="preserve">0 </tspan><tspan x="42.5" y="53">K </tspan><tspan x="51.22" y="53" class="cls-11">0</tspan></tspan></text><rect width="128.81" height="128.81" x="1592.72" y="756.77" class="cls-47"/><rect width="128.81" height="239.74" x="1592.72" y="756.77" class="cls-22"/><text class="cls-61" transform="translate(132.92 738.1)"><tspan class="cls-113">W</tspan><tspan x="10.8" y="0" class="cls-77">E</tspan><tspan x="17.17" y="0">B </tspan><tspan x="27.54" y="0" class="cls-77">S</tspan><tspan x="34.16" y="0">I</tspan><tspan x="37.33" y="0" class="cls-72">T</tspan><tspan x="43.18" y="0">E </tspan><tspan x="52.69" y="0" class="cls-72">C</tspan><tspan x="59.84" y="0">O</tspan><tspan x="67.39" y="0" class="cls-114">L</tspan><tspan x="73.13" y="0">OR </tspan><tspan x="90.94" y="0" class="cls-115">P</tspan><tspan x="97.26" y="0">A</tspan><tspan x="104.25" y="0" class="cls-76">L</tspan><tspan x="110.29" y="0" class="cls-80">E</tspan><tspan x="117.17" y="0" class="cls-81">T</tspan><tspan x="123.65" y="0" class="cls-72">T</tspan><tspan x="129.5" y="0" class="cls-73">E</tspan></text><line x1="132.85" x2="1721.85" y1="746.05" y2="746.05" class="cls-74"/><text class="cls-116" transform="translate(131.17 90.23)"><tspan class="cls-117">c</tspan><tspan x="12.09" y="0" class="cls-118">olor </tspan><tspan x="57.75" y="0" class="cls-119">p</tspan><tspan x="70.92" y="0">al</tspan><tspan x="89.52" y="0" class="cls-120">e</tspan><tspan x="102.24" y="0" class="cls-121">t</tspan><tspan x="109.17" y="0" class="cls-122">t</tspan><tspan x="116.4" y="0" class="cls-123">e</tspan><tspan x="128.97" y="0">s</tspan></text><line x1="132.91" x2="1815.06" y1="99.28" y2="99.28" class="cls-124"/></svg>