<svg xmlns="http://www.w3.org/2000/svg" id="Layer_1" data-name="Layer 1" viewBox="0 0 1920 1080"><defs><style>.cls-1,.cls-103,.cls-109,.cls-46{fill:#292929}.cls-2{font-size:30px}.cls-12,.cls-2,.cls-50,.cls-93{fill:#252c26}.cls-103,.cls-106,.cls-12,.cls-2,.cls-46,.cls-47{font-family:AcuminProCond-Medium,Acumin Pro Condensed;font-weight:500}.cls-3,.cls-4{letter-spacing:0}.cls-5{letter-spacing:-.01em}.cls-6{letter-spacing:0}.cls-7{letter-spacing:.01em}.cls-8{letter-spacing:.02em}.cls-10,.cls-11,.cls-9{letter-spacing:0}.cls-12,.cls-46,.cls-47{font-size:15px}.cls-13{letter-spacing:-.01em}.cls-14{letter-spacing:0}.cls-15,.cls-16{letter-spacing:.01em}.cls-17{letter-spacing:-.01em}.cls-18,.cls-19,.cls-20{letter-spacing:0}.cls-21,.cls-22{letter-spacing:.01em}.cls-23,.cls-24,.cls-25{letter-spacing:0}.cls-26{letter-spacing:.01em}.cls-27{letter-spacing:0}.cls-28{letter-spacing:.01em}.cls-29,.cls-30{letter-spacing:-.01em}.cls-31{letter-spacing:0}.cls-32{letter-spacing:-.01em}.cls-33{letter-spacing:.01em}.cls-34{letter-spacing:.04em}.cls-35,.cls-36{letter-spacing:-.01em}.cls-37,.cls-38{letter-spacing:.01em}.cls-39{letter-spacing:.02em}.cls-40{letter-spacing:.01em}.cls-41{letter-spacing:-.02em}.cls-42{letter-spacing:.01em}.cls-43,.cls-44{letter-spacing:-.01em}.cls-45{letter-spacing:.02em}.cls-106,.cls-47,.cls-87,.cls-92,.cls-96,.cls-97{fill:#fff}.cls-48{letter-spacing:.01em}.cls-100,.cls-101,.cls-102,.cls-49,.cls-69,.cls-90,.cls-91,.cls-98,.cls-99{fill:none;stroke-miterlimit:10}.cls-49{stroke:#252c26;stroke-width:.7px}.cls-51{fill:#616365}.cls-52{font-size:17px;fill:#3b3b3b;font-family:AcuminProCond-Bold,Acumin Pro Condensed;font-weight:700}.cls-53{letter-spacing:-.05em}.cls-54{letter-spacing:0}.cls-55{letter-spacing:-.01em}.cls-56{letter-spacing:0}.cls-57{letter-spacing:-.01em}.cls-58{font-size:13px}.cls-109,.cls-59,.cls-60,.cls-61,.cls-62,.cls-65,.cls-66,.cls-67,.cls-68,.cls-74,.cls-75,.cls-76,.cls-77,.cls-78,.cls-80,.cls-81,.cls-82,.cls-83,.cls-86,.cls-96,.cls-97{font-family:AcuminProCond-Regular,Acumin Pro Condensed}.cls-59,.cls-60,.cls-61,.cls-62,.cls-65,.cls-66,.cls-67,.cls-68,.cls-74,.cls-75,.cls-76,.cls-77,.cls-78,.cls-80,.cls-81,.cls-82,.cls-83,.cls-86{font-weight:400}.cls-59,.cls-61{letter-spacing:.02em}.cls-62{letter-spacing:.01em}.cls-63{letter-spacing:.04em}.cls-64{letter-spacing:0}.cls-65{letter-spacing:.01em}.cls-66{letter-spacing:.02em}.cls-67,.cls-79{letter-spacing:0}.cls-68{letter-spacing:.01em}.cls-69{stroke:#000}.cls-70,.cls-71,.cls-72{letter-spacing:0}.cls-73{letter-spacing:-.01em}.cls-74{letter-spacing:0}.cls-75{letter-spacing:.01em}.cls-76{letter-spacing:-.01em}.cls-77,.cls-78,.cls-80{letter-spacing:.01em}.cls-81{letter-spacing:0}.cls-82{letter-spacing:.01em}.cls-83{letter-spacing:0}.cls-84{fill:#c9cac8}.cls-85{letter-spacing:0}.cls-86{letter-spacing:.01em}.cls-88,.cls-93{font-size:35px}.cls-88,.cls-89,.cls-92{font-family:DoubleDigitsRound,Double Digits Round}.cls-89,.cls-92{font-size:33.19px}.cls-90,.cls-91,.cls-98,.cls-99{stroke:#00a5ff}.cls-102,.cls-90,.cls-91{stroke-width:.95px}.cls-91{stroke-dasharray:2.71 1.81}.cls-93{font-family:AcuminPro-Regular,Acumin Pro}.cls-94{letter-spacing:-.02em}.cls-95{letter-spacing:-.04em}.cls-109,.cls-96{font-size:18.02px}.cls-97{font-size:19px}.cls-101,.cls-99{stroke-dasharray:2.86 1.9}.cls-100,.cls-101,.cls-102{stroke:#00b924}.cls-102{stroke-dasharray:2.85 1.9}.cls-103,.cls-106{font-size:7.5px}.cls-104{letter-spacing:0}.cls-105{letter-spacing:.01em}.cls-107,.cls-108{letter-spacing:0}</style></defs><title>babylonjs_colors_type_monochrome</title><rect width="865.32" height="272.15" x="932.76" y="220.69" class="cls-1"/><text class="cls-2" transform="translate(117.18 128.23)">mon<tspan x="46.14" y="0" class="cls-3">o</tspan><tspan x="58.98" y="0">ch</tspan><tspan x="84.3" y="0" class="cls-4">r</tspan><tspan x="92.67" y="0">ome s</tspan><tspan x="154.77" y="0" class="cls-5">w</tspan><tspan x="172.68" y="0" class="cls-6">a</tspan><tspan x="185.31" y="0" class="cls-4">t</tspan><tspan x="192.54" y="0">ch</tspan><tspan x="217.86" y="0" class="cls-7">e</tspan><tspan x="230.43" y="0">s and </tspan><tspan x="292.46" y="0" class="cls-8">t</tspan><tspan x="300.5" y="0" class="cls-9">y</tspan><tspan x="312.11" y="0" class="cls-10">p</tspan><tspan x="325.46" y="0" class="cls-11">e</tspan></text><text class="cls-12" transform="translate(120.18 589.6)"><tspan class="cls-13">T</tspan><tspan x="5.65" y="0" class="cls-14">he </tspan><tspan x="21.42" y="0" class="cls-15">c</tspan><tspan x="27.46" y="0">olor </tspan><tspan x="50.29" y="0" class="cls-9">p</tspan><tspan x="56.88" y="0">al</tspan><tspan x="66.18" y="0" class="cls-16">e</tspan><tspan x="72.54" y="0" class="cls-17">t</tspan><tspan x="76" y="0" class="cls-18">t</tspan><tspan x="79.62" y="0">e </tspan><tspan x="88.66" y="0" class="cls-19">s</tspan><tspan x="94.27" y="0" class="cls-20">ho</tspan><tspan x="107.37" y="0" class="cls-13">w</tspan><tspan x="116.43" y="0">n is us</tspan><tspan x="149.82" y="0" class="cls-21">e</tspan><tspan x="156.15" y="0">d </tspan><tspan x="165.63" y="0" class="cls-22">f</tspan><tspan x="168.99" y="0" class="cls-20">or appli</tspan><tspan x="208.01" y="0" class="cls-23">c</tspan><tspan x="214" y="0">ations </tspan><tspan x="248.59" y="0" class="cls-24">o</tspan><tspan x="255.02" y="0" class="cls-20">f the mon</tspan><tspan x="303.65" y="0" class="cls-23">o</tspan><tspan x="310.07" y="0">ch</tspan><tspan x="322.73" y="0" class="cls-25">r</tspan><tspan x="326.92" y="0">ome ident</tspan><tspan x="378.53" y="0" class="cls-26">i</tspan><tspan x="381.68" y="0" class="cls-8">t</tspan><tspan x="385.7" y="0">y on a light or </tspan><tspan x="458.88" y="0" class="cls-27">d</tspan><tspan x="465.44" y="0" class="cls-20">ark </tspan><tspan x="484.73" y="0" class="cls-28">c</tspan><tspan x="490.77" y="0">olor </tspan><tspan x="513.6" y="0" class="cls-9">b</tspan><tspan x="520.19" y="0">ackg</tspan><tspan x="545" y="0" class="cls-18">r</tspan><tspan x="549.18" y="0" class="cls-20">o</tspan><tspan x="555.56" y="0" class="cls-29">u</tspan><tspan x="562.13" y="0">nd. </tspan><tspan x="580.68" y="0" class="cls-30">T</tspan><tspan x="586.34" y="0" class="cls-20">he </tspan><tspan x="602.1" y="0" class="cls-31">R</tspan><tspan x="609.16" y="0" class="cls-14">G</tspan><tspan x="616.42" y="0" class="cls-32">B</tspan><tspan x="623.37" y="0" class="cls-20">, H</tspan><tspan x="636.25" y="0" class="cls-33">e</tspan><tspan x="642.52" y="0" class="cls-34">x</tspan><tspan x="648.34" y="0">, and CM</tspan><tspan x="692.25" y="0" class="cls-35">Y</tspan><tspan x="698.43" y="0" class="cls-20">K </tspan><tspan x="708.07" y="0" class="cls-28">c</tspan><tspan x="714.12" y="0" class="cls-20">olo</tspan><tspan x="729.85" y="0" class="cls-31">r</tspan><tspan x="734.17" y="0" class="cls-14">s </tspan><tspan x="0" y="18">in the s</tspan><tspan x="37.66" y="18" class="cls-36">w</tspan><tspan x="46.62" y="18">a</tspan><tspan x="52.93" y="18" class="cls-18">t</tspan><tspan x="56.55" y="18">ch</tspan><tspan x="69.21" y="18" class="cls-37">e</tspan><tspan x="75.49" y="18">s </tspan><tspan x="84" y="18" class="cls-3">b</tspan><tspan x="90.67" y="18">elow a</tspan><tspan x="124.54" y="18" class="cls-25">r</tspan><tspan x="128.73" y="18" class="cls-14">e n</tspan><tspan x="144.49" y="18" class="cls-23">o</tspan><tspan x="150.91" y="18">t a di</tspan><tspan x="176.23" y="18" class="cls-25">r</tspan><tspan x="180.42" y="18" class="cls-38">e</tspan><tspan x="186.75" y="18" class="cls-39">c</tspan><tspan x="193" y="18">t </tspan><tspan x="199.52" y="18" class="cls-28">c</tspan><tspan x="205.57" y="18" class="cls-20">o</tspan><tspan x="211.94" y="18" class="cls-32">n</tspan><tspan x="218.51" y="18" class="cls-25">v</tspan><tspan x="224.27" y="18">e</tspan><tspan x="230.47" y="18" class="cls-33">r</tspan><tspan x="234.79" y="18">sion </tspan><tspan x="259.39" y="18" class="cls-40">f</tspan><tspan x="262.87" y="18" class="cls-18">r</tspan><tspan x="267.05" y="18" class="cls-20">om the </tspan><tspan x="305.69" y="18" class="cls-41">P</tspan><tspan x="312.29" y="18">an</tspan><tspan x="325.33" y="18" class="cls-25">t</tspan><tspan x="328.94" y="18">one s</tspan><tspan x="356.74" y="18" class="cls-22">y</tspan><tspan x="362.68" y="18" class="cls-42">s</tspan><tspan x="368.45" y="18" class="cls-18">t</tspan><tspan x="372.07" y="18">em using the </tspan><tspan x="442.08" y="18" class="cls-15">c</tspan><tspan x="448.13" y="18">olor b</tspan><tspan x="477.59" y="18" class="cls-19">r</tspan><tspan x="481.79" y="18">idge b</tspan><tspan x="513.77" y="18" class="cls-16">u</tspan><tspan x="520.59" y="18">t </tspan><tspan x="527.12" y="18" class="cls-43">h</tspan><tspan x="533.72" y="18" class="cls-44">a</tspan><tspan x="539.82" y="18" class="cls-25">v</tspan><tspan x="545.58" y="18">e </tspan><tspan x="554.63" y="18" class="cls-3">b</tspan><tspan x="561.3" y="18" class="cls-21">e</tspan><tspan x="567.63" y="18">en </tspan><tspan x="583.4" y="18" class="cls-19">s</tspan><tspan x="589.01" y="18">lightly a</tspan><tspan x="630.06" y="18" class="cls-26">l</tspan><tspan x="633.19" y="18" class="cls-18">t</tspan><tspan x="636.81" y="18">e</tspan><tspan x="643" y="18" class="cls-18">r</tspan><tspan x="647.19" y="18" class="cls-21">e</tspan><tspan x="653.52" y="18">d </tspan><tspan x="663" y="18" class="cls-22">f</tspan><tspan x="666.36" y="18">or </tspan><tspan x="679.83" y="18" class="cls-9">b</tspan><tspan x="686.41" y="18" class="cls-20">a</tspan><tspan x="692.73" y="18" class="cls-27">l</tspan><tspan x="695.64" y="18">an</tspan><tspan x="708.67" y="18" class="cls-28">c</tspan><tspan x="714.72" y="18">e </tspan><tspan x="0" y="36">ac</tspan><tspan x="12.25" y="36" class="cls-25">r</tspan><tspan x="16.44" y="36" class="cls-31">o</tspan><tspan x="22.89" y="36" class="cls-37">s</tspan><tspan x="28.63" y="36">s the </tspan><tspan x="56.58" y="36" class="cls-28">c</tspan><tspan x="62.62" y="36" class="cls-20">olor </tspan><tspan x="85.45" y="36" class="cls-30">s</tspan><tspan x="91.02" y="36" class="cls-9">p</tspan><tspan x="97.6" y="36">a</tspan><tspan x="103.92" y="36" class="cls-15">c</tspan><tspan x="109.96" y="36" class="cls-37">e</tspan><tspan x="116.25" y="36" class="cls-45">s</tspan><tspan x="122.13" y="36">.</tspan></text><text class="cls-46" transform="translate(840.51 480.58)"><tspan class="cls-24">L</tspan><tspan x="5.88" y="0">IGHT </tspan><tspan x="32.59" y="0" class="cls-22">T</tspan><tspan x="38.43" y="0" class="cls-20">H</tspan><tspan x="46.05" y="0" class="cls-9">E</tspan><tspan x="52.26" y="0">ME</tspan></text><text class="cls-47" transform="translate(953.46 480.58)"><tspan class="cls-9">DA</tspan><tspan x="14.13" y="0">RK </tspan><tspan x="30.76" y="0" class="cls-48">T</tspan><tspan x="36.6" y="0">H</tspan><tspan x="44.22" y="0" class="cls-9">E</tspan><tspan x="50.43" y="0">ME</tspan></text><line x1="118.91" x2="1801.06" y1="137.28" y2="137.28" class="cls-49"/><path d="M320.38,315.61h14.93v33.48c2.65-4.45,7.95-8.79,18.43-8.79,16.39,0,25.3,13.49,25.3,31.2,0,18.19-9.28,33.6-27,33.6-9.4,0-13.86-3.13-16.87-8.07a46.6,46.6,0,0,1-.6,6.63H320.26c.12-6.75.12-13.61.12-20.48Zm29,36.85c-10.84,0-14.82,7.23-14.82,20.48,0,11.32,3.49,20.12,14.58,20.12,9.39,0,14.57-8.43,14.57-21.2C363.74,360.54,359.16,352.46,349.41,352.46Z" class="cls-50"/><path d="M440,388.48a124.71,124.71,0,0,0,.84,15.18H426.5a30.63,30.63,0,0,1-1-6.75c-2.17,3.74-6.62,8.19-17.94,8.19-14.82,0-21.08-9.75-21.08-19.27,0-14,11.2-20.48,29.39-20.48h9.39v-4.21c0-4.82-1.56-9.88-10.84-9.88-8.19,0-9.88,3.73-10.72,8.31H389.4c.84-10.12,7.22-19.39,25.65-19.27,16.14.12,24.94,6.5,24.94,21Zm-14.58-13.73h-8.07c-11,0-15.78,3.25-15.78,10.24,0,5.06,3.38,9.15,10,9.15,12.29,0,13.85-8.43,13.85-17.58Z" class="cls-50"/><path d="M453.48,315.61h14.93v33.48c2.65-4.45,7.95-8.79,18.43-8.79,16.39,0,25.3,13.49,25.3,31.2,0,18.19-9.28,33.6-27,33.6-9.4,0-13.85-3.13-16.87-8.07a46.6,46.6,0,0,1-.6,6.63H453.36c.12-6.75.12-13.61.12-20.48Zm29,36.85c-10.84,0-14.82,7.23-14.82,20.48,0,11.32,3.49,20.12,14.58,20.12,9.39,0,14.57-8.43,14.57-21.2C496.84,360.54,492.26,352.46,482.51,352.46Z" class="cls-50"/><path d="M530.93,341.74c7.71,24.22,13.25,42.28,14.45,48.31h.12c1.57-6.51,5.42-20.48,13.74-48.31h14.93l-21.32,64.09c-6,17.94-10.84,23-24.93,23a65.5,65.5,0,0,1-7.59-.48V416.06c1.32.13,3.13.25,4.7.25,6.74,0,9.87-2.53,12.64-10.6l-22.76-64Z" class="cls-50"/><path d="M580.8,403.66V315.61h14.93v88.05Z" class="cls-50"/><path d="M666.44,372.58c0,18.43-10.84,32.52-30.24,32.52-18.79,0-29.75-13.73-29.75-32.28,0-18.79,11.2-32.52,30.48-32.52C654.88,340.3,666.44,353.19,666.44,372.58Zm-44.81.12c0,12.53,5.66,20.48,14.94,20.48s14.57-7.83,14.57-20.36c0-13.37-5.18-20.6-14.82-20.6C627.17,352.22,621.63,359.21,621.63,372.7Z" class="cls-50"/><path d="M677.28,357.28c0-5.3,0-10.84-.12-15.54h14.45a67.21,67.21,0,0,1,.6,8.68c2.17-4.34,7.23-10.12,18.43-10.12,12.17,0,20.6,7.95,20.6,23.85v39.51H716.31V365.84c0-7.71-2.77-13.25-11-13.25-8.79,0-13.13,5.66-13.13,17.1v34H677.28Z" class="cls-50"/><path d="M745.46,403.66v-20h16v20Z" class="cls-50"/><path d="M786.17,343.07v63.84c0,16.5-4,22-15.78,22-.48,0-2.89-.12-3.74-.24v-7.22a18.8,18.8,0,0,0,2.53.12c8.07,0,8.92-4.34,8.92-13.5v-65Zm-8.07-15.66V315h8.07v12.41Z" class="cls-50"/><path d="M804.48,386.67c1.92,7.23,7.22,11.69,16.14,11.69,9.87,0,13.85-4.46,13.85-10.72s-2.77-9.4-15.42-12.41c-16.5-4-20.24-9-20.24-17.1,0-8.44,6.39-16.51,20.84-16.51s21.08,8.68,22.05,17.23h-8c-1-4.58-4.58-10.48-14.34-10.48s-12.4,4.7-12.4,9.15c0,5.06,2.65,7.59,14.21,10.36C838.93,372.1,842.9,378,842.9,387c0,10.84-8.67,18.06-22.52,18.06-14.7,0-22.41-7.59-24-18.43Z" class="cls-50"/><polygon points="290.93 315.5 267.05 301.71 244.07 314.98 267.95 328.76 290.93 315.5" class="cls-51"/><polygon points="161.29 328.76 237.6 284.71 214.62 271.44 138.31 315.5 161.29 328.76" class="cls-51"/><polygon points="190.74 373.35 214.62 387.13 238.5 373.35 214.62 359.56 190.74 373.35" class="cls-51"/><polygon points="267.95 328.76 267.95 390.35 214.62 421.14 161.29 390.35 161.29 328.76 138.31 315.5 138.31 403.61 214.62 447.67 290.93 403.61 290.93 315.5 267.95 328.76" class="cls-50"/><polygon points="214.62 331.98 190.74 345.77 190.74 373.35 214.62 359.56 238.5 373.35 238.5 345.77 214.62 331.98" class="cls-50"/><text class="cls-52" transform="translate(155.27 813.92)"><tspan class="cls-53">P</tspan><tspan x="7.38" y="0" class="cls-54">A</tspan><tspan x="15.49" y="0">N</tspan><tspan x="24.57" y="0" class="cls-55">T</tspan><tspan x="31.48" y="0" class="cls-56">ONE</tspan><tspan x="6.15" y="19" class="cls-55">B</tspan><tspan x="14.41" y="19" class="cls-57">l</tspan><tspan x="18.13" y="19">ack 3</tspan><tspan class="cls-58"><tspan x="-5.76" y="38">R </tspan><tspan x="3.06" y="38" class="cls-59">3</tspan><tspan x="8.48" y="38" class="cls-60" xml:space="preserve">7 </tspan><tspan x="17.9" y="38">G </tspan><tspan x="26.91" y="38" class="cls-61">4</tspan><tspan x="32.55" y="38" class="cls-60" xml:space="preserve">4 </tspan><tspan x="42.85" y="38">B </tspan><tspan x="51.77" y="38" class="cls-62">3</tspan><tspan x="57.04" y="38" class="cls-60">8</tspan><tspan x="1.78" y="55">H</tspan><tspan x="8.59" y="55" class="cls-63">E</tspan><tspan x="14.78" y="55" class="cls-64">X </tspan><tspan x="22.98" y="55" class="cls-65">2</tspan><tspan x="28.13" y="55" class="cls-60">52C26</tspan><tspan x="-18.56" y="72">C</tspan><tspan x="-12.35" y="72" class="cls-60"> </tspan><tspan x="-9.87" y="72" class="cls-66">7</tspan><tspan x="-5.16" y="72" class="cls-67" xml:space="preserve">2 </tspan><tspan x="4.86" y="72">M </tspan><tspan x="15.72" y="72" class="cls-68">4</tspan><tspan x="21.13" y="72" class="cls-67" xml:space="preserve">6 </tspan><tspan x="31.6" y="72">Y </tspan><tspan x="39.91" y="72" class="cls-60" xml:space="preserve">56 </tspan><tspan x="55.77" y="72">K </tspan><tspan x="64.49" y="72" class="cls-60">95</tspan></tspan></text><rect width="128.81" height="128.81" x="119.92" y="658.72" class="cls-50"/><rect width="128.81" height="239.74" x="119.92" y="658.72" class="cls-69"/><text class="cls-52" transform="translate(301.25 813.92)"><tspan class="cls-53">P</tspan><tspan x="7.38" y="0" class="cls-54">A</tspan><tspan x="15.49" y="0">N</tspan><tspan x="24.57" y="0" class="cls-55">T</tspan><tspan x="31.48" y="0" class="cls-56">ONE</tspan><tspan x="-8.87" y="19" class="cls-70">C</tspan><tspan x="-.66" y="19" class="cls-71">o</tspan><tspan x="7.02" y="19">ol </tspan><tspan x="21.62" y="19" class="cls-72">G</tspan><tspan x="30.29" y="19" class="cls-73">r</tspan><tspan x="35.46" y="19" class="cls-55">a</tspan><tspan x="42.81" y="19">y 10</tspan><tspan class="cls-58"><tspan x="-6.48" y="38">R </tspan><tspan x="2.33" y="38" class="cls-74">9</tspan><tspan x="7.81" y="38" class="cls-60" xml:space="preserve">7 </tspan><tspan x="17.23" y="38">G </tspan><tspan x="26.24" y="38" class="cls-75">9</tspan><tspan x="31.75" y="38" class="cls-67" xml:space="preserve">9 </tspan><tspan x="42.15" y="38">B </tspan><tspan x="51.07" y="38" class="cls-76">1</tspan><tspan x="54.29" y="38" class="cls-60">01</tspan><tspan x="2.45" y="55">H</tspan><tspan x="9.26" y="55" class="cls-63">E</tspan><tspan x="15.45" y="55" class="cls-64">X </tspan><tspan x="23.65" y="55" class="cls-60">61</tspan><tspan x="32.46" y="55" class="cls-77">6</tspan><tspan x="38.08" y="55" class="cls-78">3</tspan><tspan x="43.32" y="55" class="cls-75">6</tspan><tspan x="48.91" y="55" class="cls-60">5</tspan><tspan x="-18.87" y="72">C</tspan><tspan x="-12.65" y="72" class="cls-60"> </tspan><tspan x="-10.17" y="72" class="cls-62">3</tspan><tspan x="-4.89" y="72" class="cls-60" xml:space="preserve">8 </tspan><tspan x="5.53" y="72" class="cls-79">M </tspan><tspan x="16.39" y="72" class="cls-80">2</tspan><tspan x="21.59" y="72" class="cls-60" xml:space="preserve">9 </tspan><tspan x="31.99" y="72" class="cls-79">Y </tspan><tspan x="40.29" y="72" class="cls-74">2</tspan><tspan x="45.39" y="72" class="cls-67" xml:space="preserve">0 </tspan><tspan x="56" y="72">K </tspan><tspan x="64.72" y="72" class="cls-81">5</tspan><tspan x="70.15" y="72" class="cls-60">8</tspan></tspan></text><rect width="128.81" height="128.81" x="265.9" y="658.72" class="cls-51"/><rect width="128.81" height="239.74" x="265.9" y="658.72" class="cls-69"/><text class="cls-52" transform="translate(447.23 813.92)"><tspan class="cls-53">P</tspan><tspan x="7.38" y="0" class="cls-54">A</tspan><tspan x="15.49" y="0">N</tspan><tspan x="24.57" y="0" class="cls-55">T</tspan><tspan x="31.48" y="0" class="cls-56">ONE</tspan><tspan x="-6.32" y="19" class="cls-70">C</tspan><tspan x="1.89" y="19" class="cls-71">o</tspan><tspan x="9.57" y="19">ol </tspan><tspan x="24.17" y="19" class="cls-72">G</tspan><tspan x="32.84" y="19" class="cls-73">r</tspan><tspan x="38.01" y="19" class="cls-55">a</tspan><tspan x="45.36" y="19">y 3</tspan><tspan class="cls-58"><tspan x="-13.06" y="38">R </tspan><tspan x="-4.25" y="38" class="cls-74">2</tspan><tspan x=".85" y="38" class="cls-67" xml:space="preserve">01 </tspan><tspan x="14.74" y="38">G </tspan><tspan x="23.75" y="38" class="cls-74">2</tspan><tspan x="28.85" y="38" class="cls-67" xml:space="preserve">02 </tspan><tspan x="44.51" y="38">B </tspan><tspan x="53.43" y="38" class="cls-74">2</tspan><tspan x="58.53" y="38" class="cls-60">00</tspan><tspan x=".58" y="55">H</tspan><tspan x="7.39" y="55" class="cls-63">E</tspan><tspan x="13.58" y="55" class="cls-64">X </tspan><tspan x="21.78" y="55" class="cls-60">C9</tspan><tspan x="33.05" y="55" class="cls-82">C</tspan><tspan x="39.03" y="55" class="cls-60">AC8</tspan><tspan x="-9.74" y="72">C</tspan><tspan x="-3.53" y="72" class="cls-60" xml:space="preserve"> 8 </tspan><tspan x="9.38" y="72">M </tspan><tspan x="20.24" y="72" class="cls-60" xml:space="preserve">5 </tspan><tspan x="30.58" y="72">Y </tspan><tspan x="38.89" y="72" class="cls-60" xml:space="preserve">6 </tspan><tspan x="49.37" y="72">K </tspan><tspan x="58.09" y="72" class="cls-83">1</tspan><tspan x="61.31" y="72" class="cls-60">3</tspan></tspan></text><rect width="128.81" height="128.81" x="411.88" y="658.72" class="cls-84"/><rect width="128.81" height="239.74" x="411.88" y="658.72" class="cls-69"/><text class="cls-52" transform="translate(601.75 813.92)"><tspan class="cls-54">W</tspan><tspan x="11.99" y="0" class="cls-56">HI</tspan><tspan x="24.99" y="0" class="cls-85">T</tspan><tspan x="32.2" y="0">E</tspan><tspan class="cls-58"><tspan x="-22.36" y="19">R </tspan><tspan x="-13.55" y="19" class="cls-65">2</tspan><tspan x="-8.4" y="19" class="cls-60" xml:space="preserve">55 </tspan><tspan x="7.33" y="19">G </tspan><tspan x="16.33" y="19" class="cls-65">2</tspan><tspan x="21.48" y="19" class="cls-60" xml:space="preserve">55 </tspan><tspan x="37.21" y="19">B </tspan><tspan x="46.13" y="19" class="cls-86">2</tspan><tspan x="51.28" y="19" class="cls-60">55</tspan><tspan x="-6.23" y="36">H</tspan><tspan x=".59" y="36" class="cls-63">E</tspan><tspan x="6.77" y="36" class="cls-64">X </tspan><tspan x="14.98" y="36" class="cls-74">FFFFF</tspan><tspan x="40.78" y="36" class="cls-60">F</tspan><tspan x="-17.18" y="53">C</tspan><tspan x="-10.97" y="53" class="cls-60" xml:space="preserve"> 0 </tspan><tspan x="2.12" y="53">M </tspan><tspan x="12.97" y="53" class="cls-60" xml:space="preserve">0 </tspan><tspan x="23.58" y="53" class="cls-79">Y </tspan><tspan x="31.89" y="53" class="cls-60" xml:space="preserve">0 </tspan><tspan x="42.5" y="53">K </tspan><tspan x="51.22" y="53" class="cls-60">0</tspan></tspan></text><rect width="128.81" height="128.81" x="557.86" y="658.72" class="cls-87"/><rect width="128.81" height="239.74" x="557.86" y="658.72" class="cls-69"/><text class="cls-88" transform="translate(170 932.38)">!</text><text class="cls-88" transform="translate(315.98 932.38)">@</text><text class="cls-88" transform="translate(464.28 932.38)">#</text><text class="cls-88" transform="translate(610.92 932.38)">$</text><circle cx="489.88" cy="426.32" r="10.06"/><circle cx="362.24" cy="410.53" r="9.56" class="cls-87"/><text class="cls-89" transform="translate(352.13 416.55)">!</text><line x1="294.59" x2="296.01" y1="315.73" y2="315.73" class="cls-90"/><line x1="297.82" x2="314.98" y1="315.73" y2="315.73" class="cls-91"/><line x1="315.88" x2="317.3" y1="315.73" y2="315.73" class="cls-90"/><line x1="294.59" x2="296.01" y1="403.69" y2="403.69" class="cls-90"/><line x1="297.82" x2="314.98" y1="403.69" y2="403.69" class="cls-91"/><line x1="315.88" x2="317.3" y1="403.69" y2="403.69" class="cls-90"/><text class="cls-92" transform="translate(204.14 353.33)">!</text><text class="cls-92" transform="translate(204.14 439.64)">!</text><text class="cls-92" transform="translate(204.14 379.09)">@</text><text class="cls-92" transform="translate(257.43 320.96)">@</text><text class="cls-92" transform="translate(151.3 320.96)">@</text><text class="cls-93" transform="translate(980.21 857.22)"><tspan class="cls-94">Acu</tspan><tspan x="58.2" y="0">min </tspan><tspan x="124.77" y="0" class="cls-95">P</tspan><tspan x="145.39" y="0">ro </tspan><tspan x="185.81" y="0" class="cls-94">Sem</tspan><tspan x="252.84" y="0">i</tspan><tspan x="261.13" y="0" class="cls-94">bol</tspan><tspan x="306.56" y="0">d</tspan></text><text class="cls-93" transform="translate(1445.24 857.22)">Type Size</text><text class="cls-96" transform="translate(485.83 432.22)">A</text><circle cx="809.38" cy="426.32" r="10.06"/><text class="cls-96" transform="translate(805.41 432.22)">B</text><circle cx="957.38" cy="887.28" r="10.61"/><text class="cls-97" transform="translate(953.2 893.5)">B</text><circle cx="957.38" cy="845.88" r="10.61"/><text class="cls-97" transform="translate(953.12 852.1)">A</text><line x1="1409.91" x2="1411.41" y1="856.89" y2="856.89" class="cls-98"/><line x1="1413.31" x2="1431.4" y1="856.89" y2="856.89" class="cls-99"/><line x1="1432.35" x2="1433.85" y1="856.89" y2="856.89" class="cls-98"/><line x1="1409.91" x2="1411.41" y1="832.78" y2="832.78" class="cls-98"/><line x1="1413.31" x2="1431.4" y1="832.78" y2="832.78" class="cls-99"/><line x1="1432.35" x2="1433.85" y1="832.78" y2="832.78" class="cls-98"/><text class="cls-93" transform="translate(1445.24 898.61)">Spacing</text><line x1="1409.91" x2="1411.41" y1="898.28" y2="898.28" class="cls-100"/><line x1="1413.31" x2="1431.4" y1="898.28" y2="898.28" class="cls-101"/><line x1="1432.35" x2="1433.85" y1="898.28" y2="898.28" class="cls-100"/><line x1="1409.91" x2="1411.41" y1="874.17" y2="874.17" class="cls-100"/><line x1="1413.31" x2="1431.4" y1="874.17" y2="874.17" class="cls-101"/><line x1="1432.35" x2="1433.85" y1="874.17" y2="874.17" class="cls-100"/><text class="cls-93" transform="translate(980.21 898.61)"><tspan class="cls-94">Acu</tspan><tspan x="58.2" y="0">min </tspan><tspan x="124.77" y="0" class="cls-95">P</tspan><tspan x="145.39" y="0">ro Light</tspan></text><line x1="320.38" x2="320.38" y1="293.78" y2="309.18" class="cls-102"/><line x1="290.93" x2="290.93" y1="293.78" y2="309.18" class="cls-102"/><line x1="295.54" x2="271.65" y1="285.3" y2="299.09" class="cls-102"/><line x1="266.09" x2="242.21" y1="268.3" y2="282.09" class="cls-102"/><path d="M1202.45,315.61h14.94v33.48c2.65-4.45,7.95-8.79,18.43-8.79,16.38,0,25.29,13.49,25.29,31.2,0,18.19-9.27,33.6-27,33.6-9.39,0-13.85-3.13-16.86-8.07a45,45,0,0,1-.61,6.63h-14.33c.12-6.75.12-13.61.12-20.48Zm29,36.85c-10.84,0-14.82,7.23-14.82,20.48,0,11.32,3.5,20.12,14.58,20.12,9.4,0,14.57-8.43,14.57-21.2C1245.81,360.54,1241.24,352.46,1231.48,352.46Z" class="cls-87"/><path d="M1322.06,388.48a124.71,124.71,0,0,0,.84,15.18h-14.33a31.3,31.3,0,0,1-1-6.75c-2.17,3.74-6.63,8.19-17.95,8.19-14.82,0-21.08-9.75-21.08-19.27,0-14,11.2-20.48,29.39-20.48h9.4v-4.21c0-4.82-1.57-9.88-10.85-9.88-8.19,0-9.87,3.73-10.72,8.31h-14.33c.84-10.12,7.23-19.39,25.66-19.27,16.14.12,24.93,6.5,24.93,21Zm-14.57-13.73h-8.07c-11,0-15.78,3.25-15.78,10.24,0,5.06,3.37,9.15,10,9.15,12.29,0,13.86-8.43,13.86-17.58Z" class="cls-87"/><path d="M1335.55,315.61h14.94v33.48c2.65-4.45,8-8.79,18.43-8.79,16.38,0,25.29,13.49,25.29,31.2,0,18.19-9.27,33.6-27,33.6-9.39,0-13.85-3.13-16.86-8.07a45,45,0,0,1-.61,6.63h-14.33c.12-6.75.12-13.61.12-20.48Zm29,36.85c-10.84,0-14.82,7.23-14.82,20.48,0,11.32,3.5,20.12,14.58,20.12,9.4,0,14.57-8.43,14.57-21.2C1378.91,360.54,1374.34,352.46,1364.58,352.46Z" class="cls-87"/><path d="M1413,341.74c7.71,24.22,13.25,42.28,14.46,48.31h.12c1.56-6.51,5.42-20.48,13.73-48.31h14.94l-21.33,64.09c-6,17.94-10.84,23-24.93,23a65.5,65.5,0,0,1-7.59-.48V416.06c1.33.13,3.13.25,4.7.25,6.75,0,9.88-2.53,12.65-10.6l-22.77-64Z" class="cls-87"/><path d="M1462.87,403.66V315.61h14.94v88.05Z" class="cls-87"/><path d="M1548.51,372.58c0,18.43-10.84,32.52-30.23,32.52-18.79,0-29.75-13.73-29.75-32.28,0-18.79,11.2-32.52,30.47-32.52C1537,340.3,1548.51,353.19,1548.51,372.58Zm-44.81.12c0,12.53,5.66,20.48,14.94,20.48s14.57-7.83,14.57-20.36c0-13.37-5.18-20.6-14.81-20.6C1509.24,352.22,1503.7,359.21,1503.7,372.7Z" class="cls-87"/><path d="M1559.35,357.28c0-5.3,0-10.84-.12-15.54h14.46a67.21,67.21,0,0,1,.6,8.68c2.17-4.34,7.23-10.12,18.43-10.12,12.16,0,20.6,7.95,20.6,23.85v39.51h-14.94V365.84c0-7.71-2.77-13.25-11-13.25-8.8,0-13.13,5.66-13.13,17.1v34h-14.94Z" class="cls-87"/><path d="M1627.53,403.66v-20h16v20Z" class="cls-87"/><path d="M1668.24,343.07v63.84c0,16.5-4,22-15.78,22-.48,0-2.89-.12-3.73-.24v-7.22a18.65,18.65,0,0,0,2.53.12c8.07,0,8.91-4.34,8.91-13.5v-65Zm-8.07-15.66V315h8.07v12.41Z" class="cls-87"/><path d="M1686.55,386.67c1.93,7.23,7.23,11.69,16.14,11.69,9.88,0,13.85-4.46,13.85-10.72s-2.77-9.4-15.42-12.41c-16.5-4-20.23-9-20.23-17.1,0-8.44,6.38-16.51,20.84-16.51s21.08,8.68,22,17.23h-8c-1-4.58-4.58-10.48-14.33-10.48s-12.41,4.7-12.41,9.15c0,5.06,2.65,7.59,14.21,10.36C1721,372.1,1725,378,1725,387c0,10.84-8.67,18.06-22.52,18.06-14.7,0-22.41-7.59-24-18.43Z" class="cls-87"/><polygon points="1173 315.5 1149.12 301.71 1126.14 314.98 1150.03 328.76 1173 315.5" class="cls-87"/><polygon points="1043.36 328.76 1119.67 284.71 1096.69 271.44 1020.38 315.5 1043.36 328.76" class="cls-87"/><polygon points="1072.81 373.35 1096.69 387.13 1120.58 373.35 1096.69 359.56 1072.81 373.35" class="cls-87"/><polygon points="1150.03 328.76 1150.03 390.35 1096.69 421.14 1043.36 390.35 1043.36 328.76 1020.38 315.5 1020.38 403.61 1096.69 447.67 1173 403.61 1173 315.5 1150.03 328.76" class="cls-84"/><polygon points="1096.69 331.98 1072.81 345.77 1072.81 373.35 1096.69 359.56 1120.58 373.35 1120.58 345.77 1096.69 331.98" class="cls-84"/><rect width="432.66" height="136.07" x="1365.42" y="532.47" class="cls-1"/><text class="cls-103" transform="translate(1319.29 662.41)"><tspan class="cls-104">L</tspan><tspan x="2.94" y="0">IGHT </tspan><tspan x="16.3" y="0" class="cls-105">T</tspan><tspan x="19.21" y="0">H</tspan><tspan x="23.02" y="0" class="cls-9">E</tspan><tspan x="26.13" y="0">ME</tspan></text><text class="cls-106" transform="translate(1375.77 662.41)"><tspan class="cls-9">DA</tspan><tspan x="7.07" y="0" class="cls-107">RK </tspan><tspan x="15.38" y="0" class="cls-105">T</tspan><tspan x="18.3" y="0">H</tspan><tspan x="22.11" y="0" class="cls-108">E</tspan><tspan x="25.21" y="0">ME</tspan></text><path d="M1059.23,579.93h7.47v16.74c1.32-2.23,4-4.4,9.21-4.4,8.19,0,12.65,6.75,12.65,15.6,0,9.1-4.64,16.81-13.49,16.81-4.7,0-6.93-1.57-8.43-4a23.08,23.08,0,0,1-.3,3.31h-7.17c.06-3.37.06-6.8.06-10.24Zm14.51,18.43c-5.42,0-7.4,3.61-7.4,10.24,0,5.66,1.74,10,7.28,10,4.7,0,7.29-4.21,7.29-10.6C1080.91,602.39,1078.62,598.36,1073.74,598.36Z" class="cls-50"/><path d="M1119,616.36a62.14,62.14,0,0,0,.42,7.59h-7.17a15.6,15.6,0,0,1-.48-3.37c-1.09,1.87-3.31,4.1-9,4.1-7.4,0-10.54-4.88-10.54-9.64,0-7,5.61-10.24,14.7-10.24h4.7v-2.11c0-2.41-.79-4.94-5.42-4.94-4.1,0-4.94,1.87-5.36,4.16h-7.17c.42-5.06,3.61-9.7,12.83-9.64,8.07.06,12.47,3.26,12.47,10.48Zm-7.29-6.86h-4c-5.48,0-7.89,1.62-7.89,5.12,0,2.53,1.69,4.57,5,4.57,6.14,0,6.93-4.21,6.93-8.79Z" class="cls-50"/><path d="M1125.78,579.93h7.47v16.74c1.32-2.23,4-4.4,9.21-4.4,8.19,0,12.65,6.75,12.65,15.6,0,9.1-4.64,16.81-13.49,16.81-4.7,0-6.93-1.57-8.43-4a23.08,23.08,0,0,1-.3,3.31h-7.17c.06-3.37.06-6.8.06-10.24Zm14.52,18.43c-5.43,0-7.41,3.61-7.41,10.24,0,5.66,1.74,10,7.28,10,4.7,0,7.29-4.21,7.29-10.6C1147.46,602.39,1145.17,598.36,1140.3,598.36Z" class="cls-50"/><path d="M1164.51,593c3.85,12.1,6.62,21.14,7.22,24.15h.06c.79-3.26,2.71-10.24,6.87-24.15h7.47l-10.66,32c-3,9-5.42,11.5-12.47,11.5a32.67,32.67,0,0,1-3.79-.24v-6.14c.66.06,1.56.12,2.34.12,3.38,0,4.94-1.27,6.33-5.3l-11.38-32Z" class="cls-50"/><path d="M1189.44,624v-44h7.47v44Z" class="cls-50"/><path d="M1232.26,608.41c0,9.22-5.42,16.27-15.12,16.27-9.39,0-14.87-6.87-14.87-16.15s5.6-16.26,15.23-16.26C1226.48,592.27,1232.26,598.72,1232.26,608.41Zm-22.4.06c0,6.27,2.83,10.24,7.46,10.24s7.29-3.91,7.29-10.18c0-6.68-2.59-10.29-7.41-10.29C1212.63,598.24,1209.86,601.73,1209.86,608.47Z" class="cls-50"/><path d="M1237.68,600.77c0-2.65,0-5.42-.06-7.77h7.23a33.45,33.45,0,0,1,.3,4.33c1.08-2.17,3.61-5.06,9.21-5.06,6.09,0,10.3,4,10.3,11.93V624h-7.47V605c0-3.85-1.38-6.62-5.48-6.62-4.39,0-6.56,2.83-6.56,8.55v17h-7.47Z" class="cls-50"/><path d="M1271.77,624V614h8v10Z" class="cls-50"/><path d="M1292.13,593.66v31.92c0,8.25-2,11-7.89,11-.25,0-1.45-.06-1.87-.12v-3.61a9.29,9.29,0,0,0,1.26.06c4,0,4.46-2.17,4.46-6.75V593.66Zm-4-7.83v-6.2h4v6.2Z" class="cls-50"/><path d="M1301.28,615.46c1,3.61,3.61,5.84,8.07,5.84,4.94,0,6.93-2.23,6.93-5.36s-1.39-4.69-7.71-6.2c-8.25-2-10.12-4.52-10.12-8.55,0-4.22,3.19-8.25,10.42-8.25s10.54,4.33,11,8.61h-4c-.48-2.29-2.28-5.24-7.16-5.24s-6.21,2.35-6.21,4.58c0,2.53,1.33,3.79,7.11,5.18,8.85,2.1,10.84,5,10.84,9.57,0,5.42-4.33,9-11.26,9-7.35,0-11.2-3.8-12-9.22Z" class="cls-50"/><polygon points="1044.51 579.87 1032.56 572.98 1021.08 579.61 1033.02 586.51 1044.51 579.87" class="cls-51"/><polygon points="979.68 586.51 1017.84 564.48 1006.35 557.85 968.2 579.87 979.68 586.51" class="cls-51"/><polygon points="994.41 608.8 1006.35 615.69 1018.29 608.8 1006.35 601.9 994.41 608.8" class="cls-51"/><polygon points="1033.02 586.51 1033.02 617.3 1006.35 632.69 979.68 617.3 979.68 586.51 968.2 579.87 968.2 623.93 1006.35 645.96 1044.51 623.93 1044.51 579.87 1033.02 586.51" class="cls-50"/><polygon points="1006.35 588.11 994.41 595.01 994.41 608.8 1006.35 601.9 1018.29 608.8 1018.29 595.01 1006.35 588.11" class="cls-50"/><path d="M1500.27,579.93h7.47v16.74c1.32-2.23,4-4.4,9.21-4.4,8.19,0,12.65,6.75,12.65,15.6,0,9.1-4.64,16.81-13.49,16.81-4.7,0-6.93-1.57-8.44-4a23.08,23.08,0,0,1-.3,3.31h-7.16c.06-3.37.06-6.8.06-10.24Zm14.51,18.43c-5.42,0-7.41,3.61-7.41,10.24,0,5.66,1.75,10,7.29,10,4.7,0,7.29-4.21,7.29-10.6C1522,602.39,1519.66,598.36,1514.78,598.36Z" class="cls-87"/><path d="M1560.07,616.36a62.14,62.14,0,0,0,.42,7.59h-7.16a15.53,15.53,0,0,1-.49-3.37c-1.08,1.87-3.31,4.1-9,4.1-7.41,0-10.54-4.88-10.54-9.64,0-7,5.6-10.24,14.7-10.24h4.69v-2.11c0-2.41-.78-4.94-5.42-4.94-4.09,0-4.94,1.87-5.36,4.16h-7.16c.42-5.06,3.61-9.7,12.82-9.64,8.08.06,12.47,3.26,12.47,10.48Zm-7.29-6.86h-4c-5.48,0-7.89,1.62-7.89,5.12,0,2.53,1.69,4.57,5,4.57,6.14,0,6.92-4.21,6.92-8.79Z" class="cls-87"/><path d="M1566.82,579.93h7.47v16.74c1.32-2.23,4-4.4,9.21-4.4,8.19,0,12.65,6.75,12.65,15.6,0,9.1-4.64,16.81-13.49,16.81-4.7,0-6.93-1.57-8.44-4a23.08,23.08,0,0,1-.3,3.31h-7.16c.06-3.37.06-6.8.06-10.24Zm14.51,18.43c-5.42,0-7.41,3.61-7.41,10.24,0,5.66,1.75,10,7.29,10,4.7,0,7.29-4.21,7.29-10.6C1588.5,602.39,1586.21,598.36,1581.33,598.36Z" class="cls-87"/><path d="M1605.54,593c3.86,12.1,6.63,21.14,7.23,24.15h.06c.78-3.26,2.71-10.24,6.87-24.15h7.46l-10.66,32c-3,9-5.42,11.5-12.46,11.5a32.83,32.83,0,0,1-3.8-.24v-6.14c.66.06,1.57.12,2.35.12,3.37,0,4.94-1.27,6.32-5.3l-11.38-32Z" class="cls-87"/><path d="M1630.48,624v-44h7.46v44Z" class="cls-87"/><path d="M1673.3,608.41c0,9.22-5.42,16.27-15.12,16.27-9.4,0-14.88-6.87-14.88-16.15s5.61-16.26,15.24-16.26C1667.52,592.27,1673.3,598.72,1673.3,608.41Zm-22.41.06c0,6.27,2.83,10.24,7.47,10.24s7.29-3.91,7.29-10.18c0-6.68-2.59-10.29-7.41-10.29C1653.66,598.24,1650.89,601.73,1650.89,608.47Z" class="cls-87"/><path d="M1678.72,600.77c0-2.65,0-5.42-.06-7.77h7.22a33.42,33.42,0,0,1,.31,4.33c1.08-2.17,3.61-5.06,9.21-5.06,6.08,0,10.3,4,10.3,11.93V624h-7.47V605c0-3.85-1.38-6.62-5.48-6.62-4.4,0-6.56,2.83-6.56,8.55v17h-7.47Z" class="cls-87"/><path d="M1712.81,624V614h8v10Z" class="cls-87"/><path d="M1733.16,593.66v31.92c0,8.25-2,11-7.89,11-.24,0-1.44-.06-1.86-.12v-3.61a9.29,9.29,0,0,0,1.26.06c4,0,4.46-2.17,4.46-6.75V593.66Zm-4-7.83v-6.2h4v6.2Z" class="cls-87"/><path d="M1742.32,615.46c1,3.61,3.61,5.84,8.07,5.84,4.94,0,6.92-2.23,6.92-5.36s-1.38-4.69-7.71-6.2c-8.25-2-10.11-4.52-10.11-8.55,0-4.22,3.19-8.25,10.41-8.25s10.54,4.33,11,8.61h-4c-.48-2.29-2.29-5.24-7.17-5.24s-6.2,2.35-6.2,4.58c0,2.53,1.33,3.79,7.11,5.18,8.85,2.1,10.84,5,10.84,9.57,0,5.42-4.34,9-11.26,9-7.35,0-11.21-3.8-12-9.22Z" class="cls-87"/><polygon points="1485.54 579.87 1473.6 572.98 1462.11 579.61 1474.05 586.51 1485.54 579.87" class="cls-87"/><polygon points="1420.72 586.51 1458.88 564.48 1447.39 557.85 1409.23 579.87 1420.72 586.51" class="cls-87"/><polygon points="1435.45 608.8 1447.39 615.69 1459.33 608.8 1447.39 601.9 1435.45 608.8" class="cls-87"/><polygon points="1474.05 586.51 1474.05 617.3 1447.39 632.69 1420.72 617.3 1420.72 586.51 1409.23 579.87 1409.23 623.93 1447.39 645.96 1485.54 623.93 1485.54 579.87 1474.05 586.51" class="cls-84"/><polygon points="1447.39 588.11 1435.45 595.01 1435.45 608.8 1447.39 601.9 1459.33 608.8 1459.33 595.01 1447.39 588.11" class="cls-84"/><circle cx="1371.95" cy="426.32" r="10.06" class="cls-87"/><circle cx="1202.26" cy="385.21" r="9.56" class="cls-87"/><text class="cls-89" transform="translate(1192.15 391.23)">#</text><line x1="1176.67" x2="1178.09" y1="315.73" y2="315.73" class="cls-90"/><line x1="1179.89" x2="1197.05" y1="315.73" y2="315.73" class="cls-91"/><line x1="1197.95" x2="1199.37" y1="315.73" y2="315.73" class="cls-90"/><line x1="1176.67" x2="1178.09" y1="403.69" y2="403.69" class="cls-90"/><line x1="1179.89" x2="1197.05" y1="403.69" y2="403.69" class="cls-91"/><line x1="1197.95" x2="1199.37" y1="403.69" y2="403.69" class="cls-90"/><circle cx="1096.32" cy="347.31" r="9.56" class="cls-87"/><text class="cls-89" transform="translate(1086.22 353.33)">#</text><circle cx="1096.32" cy="432.96" r="9.56" class="cls-87"/><text class="cls-89" transform="translate(1086.22 438.98)">#</text><circle cx="1096.32" cy="373.62" r="9.56" class="cls-87"/><text class="cls-89" transform="translate(1086.22 379.64)">$</text><circle cx="1149.95" cy="315.15" r="9.56" class="cls-87"/><text class="cls-89" transform="translate(1139.84 321.17)">$</text><circle cx="1044.04" cy="315.15" r="9.56" class="cls-87"/><text class="cls-89" transform="translate(1033.93 321.17)">$</text><text class="cls-109" transform="translate(1367.91 432.22)">A</text><circle cx="1691.46" cy="426.32" r="10.06" class="cls-87"/><text class="cls-109" transform="translate(1687.48 432.22)">B</text><line x1="1202.45" x2="1202.45" y1="293.78" y2="309.18" class="cls-102"/><line x1="1173" x2="1173" y1="293.78" y2="309.18" class="cls-102"/><line x1="1177.61" x2="1153.73" y1="285.3" y2="299.09" class="cls-102"/><line x1="1148.16" x2="1124.28" y1="268.3" y2="282.09" class="cls-102"/></svg>