<svg xmlns="http://www.w3.org/2000/svg" id="Layer_1" data-name="Layer 1" viewBox="0 0 444 385"><defs><style>.cls-1{fill:#616365}.cls-2{fill:#252c26}</style></defs><title>babylon_logo_monochrome_light</title><polygon points="332.62 128.85 297.9 108.81 264.5 128.09 299.22 148.14 332.62 128.85" class="cls-1"/><polygon points="144.18 148.14 255.09 84.1 221.7 64.81 110.78 128.85 144.18 148.14" class="cls-1"/><polygon points="186.98 212.94 221.7 232.98 256.41 212.94 221.7 192.89 186.98 212.94" class="cls-1"/><polygon points="299.22 148.14 299.22 237.65 221.7 282.41 144.18 237.65 144.18 148.14 110.78 128.85 110.78 256.93 221.7 320.97 332.62 256.93 332.62 128.85 299.22 148.14" class="cls-2"/><polygon points="221.7 152.81 186.98 172.85 186.98 212.94 221.7 192.89 256.41 212.94 256.41 172.85 221.7 152.81" class="cls-2"/></svg>